<?xml version="1.0" encoding="UTF-8" standalone="no"?>
<svg
   xmlns:dc="http://purl.org/dc/elements/1.1/"
   xmlns:cc="http://creativecommons.org/ns#"
   xmlns:rdf="http://www.w3.org/1999/02/22-rdf-syntax-ns#"
   xmlns:svg="http://www.w3.org/2000/svg"
   xmlns="http://www.w3.org/2000/svg"
   xmlns:xlink="http://www.w3.org/1999/xlink"
   xmlns:sodipodi="http://sodipodi.sourceforge.net/DTD/sodipodi-0.dtd"
   xmlns:inkscape="http://www.inkscape.org/namespaces/inkscape"
   width="512"
   height="512"
   viewBox="0 0 135.46666 135.46667"
   version="1.1"
   id="svg8"
   inkscape:version="1.0.1 (unknown)"
   sodipodi:docname="whatever.svg"
   inkscape:export-filename="/home/白铭骢/桌面/主文件夹/whatever.png"
   inkscape:export-xdpi="600"
   inkscape:export-ydpi="600">
  <defs
     id="defs2">
    <linearGradient
       inkscape:collect="always"
       id="linearGradient1052-3">
      <stop
         style="stop-color:#fcc807;stop-opacity:1"
         offset="0"
         id="stop1048" />
      <stop
         style="stop-color:#fefefd;stop-opacity:0.26274511"
         offset="0.52373558"
         id="stop1081" />
      <stop
         style="stop-color:#ffffff;stop-opacity:0;"
         offset="1"
         id="stop1050" />
    </linearGradient>
    <rect
       x="-235.15055"
       y="131.44255"
       width="244.28486"
       height="15.3427"
       id="rect913" />
    <linearGradient
       inkscape:collect="always"
       id="linearGradient1356-8">
      <stop
         style="stop-color:#56bfff;stop-opacity:1"
         offset="0"
         id="stop1352" />
      <stop
         style="stop-color:#ffffff;stop-opacity:1"
         offset="1"
         id="stop1354" />
    </linearGradient>
    <marker
       style="overflow:visible"
       id="Arrow1Lstart"
       refX="0.0"
       refY="0.0"
       orient="auto"
       inkscape:stockid="Arrow1Lstart"
       inkscape:isstock="true">
      <path
         transform="scale(0.8) translate(12.5,0)"
         style="fill-rule:evenodd;stroke:#ffffff;stroke-width:1pt;stroke-opacity:1;fill:#000600;fill-opacity:1"
         d="M 0.0,0.0 L 5.0,-5.0 L -12.5,0.0 L 5.0,5.0 L 0.0,0.0 z "
         id="path1909" />
    </marker>
    <clipPath
       clipPathUnits="userSpaceOnUse"
       id="clipPath2259">
      <path
         id="path2261"
         style="fill:#ffffff;fill-opacity:1;stroke:none;stroke-width:4.44839;stroke-linecap:round;stroke-linejoin:bevel;stroke-miterlimit:4;stroke-dasharray:none;stroke-opacity:1;paint-order:markers stroke fill"
         d="m 125.45238,70.418192 c 0,24.256804 -33.743639,43.876568 -58.000444,43.876568 -24.256806,0 -43.920832,-19.664029 -43.920834,-43.920833 0,-24.256807 19.664028,-43.920834 43.920834,-43.920834 24.256805,1e-6 58.000444,19.708295 58.000444,43.965099 z"
         sodipodi:nodetypes="sssss" />
    </clipPath>
    <radialGradient
       inkscape:collect="always"
       xlink:href="#linearGradient1356-8"
       id="radialGradient1358"
       cx="56.038441"
       cy="79.920197"
       fx="56.038441"
       fy="79.920197"
       r="49.002338"
       gradientTransform="matrix(0.95696502,-0.45436642,0.24885165,0.52411957,-17.892233,73.252007)"
       gradientUnits="userSpaceOnUse" />
    <radialGradient
       inkscape:collect="always"
       xlink:href="#linearGradient1052-3"
       id="radialGradient1061"
       cx="73.002747"
       cy="86.336342"
       fx="73.002747"
       fy="86.336342"
       r="43.146963"
       gradientTransform="matrix(0.81113256,3.6012164,-2.3636956,0.53239453,245.66761,-214.55329)"
       gradientUnits="userSpaceOnUse" />
    <clipPath
       clipPathUnits="userSpaceOnUse"
       id="clipPath1330">
      <path
         id="path1332"
         style="fill:#00ff90;fill-opacity:0.359218;stroke:none;stroke-width:2.92822;stroke-linecap:round;stroke-linejoin:round;stroke-miterlimit:4;stroke-dasharray:none;stroke-opacity:1;paint-order:markers fill stroke"
         d="m 67.733336,111.65417 c -24.256812,0 -43.920844,-19.66403 -43.920839,-43.920842 3e-6,-24.256807 19.664032,-43.920832 43.920839,-43.920829 24.256804,1e-6 76.318964,24.223351 76.318964,48.480155 0,24.25681 -52.062152,39.361516 -76.318964,39.361516 z"
         sodipodi:nodetypes="sssss" />
    </clipPath>
  </defs>
  <sodipodi:namedview
     id="base"
     pagecolor="#ffffff"
     bordercolor="#666666"
     borderopacity="1.0"
     inkscape:pageopacity="0"
     inkscape:pageshadow="2"
     inkscape:zoom="2.8284272"
     inkscape:cx="232.71167"
     inkscape:cy="237.37287"
     inkscape:document-units="mm"
     inkscape:current-layer="layer1"
     inkscape:document-rotation="0"
     showgrid="false"
     units="px"
     inkscape:window-width="2560"
     inkscape:window-height="1531"
     inkscape:window-x="0"
     inkscape:window-y="0"
     inkscape:window-maximized="1"
     inkscape:pagecheckerboard="true"
     inkscape:snap-global="false"
     showguides="false" />
  <metadata
     id="metadata5">
    <rdf:RDF>
      <cc:Work
         rdf:about="">
        <dc:format>image/svg+xml</dc:format>
        <dc:type
           rdf:resource="http://purl.org/dc/dcmitype/StillImage" />
        <dc:title></dc:title>
      </cc:Work>
    </rdf:RDF>
  </metadata>
  <g
     inkscape:label="Layer 1"
     inkscape:groupmode="layer"
     id="layer1" />
  <g
     inkscape:groupmode="layer"
     id="layer2"
     inkscape:label="Layer 2"
     style="display:inline">
    <circle
       style="fill:#ffffff;fill-opacity:0.995503;stroke:#000000;stroke-width:2.64583;stroke-linecap:round;stroke-linejoin:round;stroke-miterlimit:4;stroke-dasharray:none;stroke-opacity:1;paint-order:stroke markers fill"
       id="path80"
       cx="67.73333"
       cy="67.73333"
       r="43.944798" />
    <g
       id="g1328"
       clip-path="url(#clipPath1330)">
      <path
         style="color:#000000;font-style:normal;font-variant:normal;font-weight:normal;font-stretch:normal;font-size:medium;line-height:normal;font-family:sans-serif;font-variant-ligatures:normal;font-variant-position:normal;font-variant-caps:normal;font-variant-numeric:normal;font-variant-alternates:normal;font-variant-east-asian:normal;font-feature-settings:normal;font-variation-settings:normal;text-indent:0;text-align:start;text-decoration:none;text-decoration-line:none;text-decoration-style:solid;text-decoration-color:#000000;letter-spacing:normal;word-spacing:normal;text-transform:none;writing-mode:lr-tb;direction:ltr;text-orientation:mixed;dominant-baseline:auto;baseline-shift:baseline;text-anchor:start;white-space:normal;shape-padding:0;shape-margin:0;inline-size:0;clip-rule:nonzero;display:inline;overflow:visible;visibility:visible;isolation:auto;mix-blend-mode:normal;color-interpolation:sRGB;color-interpolation-filters:linearRGB;solid-color:#000000;solid-opacity:1;vector-effect:none;fill:#ffffff;fill-opacity:1;fill-rule:nonzero;stroke:none;stroke-width:5.29167;stroke-linecap:round;stroke-linejoin:round;stroke-miterlimit:4;stroke-dasharray:none;stroke-dashoffset:0;stroke-opacity:1;paint-order:markers stroke fill;color-rendering:auto;image-rendering:auto;shape-rendering:auto;text-rendering:auto;enable-background:accumulate;stop-color:#000000"
         d="m 55.746094,31.035156 c -4.915894,-0.87215 -9.854736,1.09905 -13.421875,4.259766 -4.756186,4.214288 -7.864959,10.560892 -6.517578,16.59375 a 2.6460995,2.6460995 0 0 0 5.162109,0.01563 c 1.36338,-5.943536 4.272737,-10.111104 7.689453,-12.205078 3.416716,-2.093974 7.365484,-2.370683 11.890625,-0.06445 a 2.6460995,2.6460995 0 0 0 1.125,0.285156 c -6.21272,5.72567 -11.617178,12.093907 -18.029297,15.92382 0.259902,-0.152393 -0.528357,0.128907 -0.949219,0.201172 0.388057,-0.0667 -0.04498,-0.0056 -0.328124,-0.0059 -0.283147,-2.48e-4 -0.623697,-0.0092 -0.791016,-0.01953 -0.424327,-0.02633 -9.343253,-0.559172 -19.035156,3.966797 a 2.6460995,2.6460995 0 0 0 -0.4375,0.16211 c -0.002,9.63e-4 -0.0039,9.89e-4 -0.0059,0.002 a 2.6460995,2.6460995 0 0 0 -1.496094,2.382812 2.6460995,2.6460995 0 0 0 2.705079,2.644531 l -0.002,0.002 c 0.005,-1.09e-4 0.01065,-0.0018 0.01562,-0.002 a 2.6460995,2.6460995 0 0 0 0.470704,-0.05469 c 5.990371,-0.225886 13.047524,-2.199222 17.511718,-1.753906 1.252226,0.124924 1.462911,-0.08401 2.03711,-0.195313 0.574199,-0.1113 1.138647,-0.239983 1.277344,-0.269531 1.477623,-0.314844 1.80038,-0.46156 3.03125,-1.279297 5.339002,-3.547042 9.295762,-7.065631 12.185546,-9.869141 2.889785,-2.803509 4.999668,-5.004686 5.439454,-5.302734 1.025416,-0.694934 2.693055,-1.952519 4.351562,-3.154297 1.658507,-1.201778 3.606054,-2.426039 3.605469,-2.425781 2.549485,-1.120886 8.447543,-0.484496 14.044922,0.08789 a 2.6460995,2.6460995 0 0 0 0.02539,0.0039 c 6.167508,0.572269 11.647651,0.603403 17.71289,4.435547 a 2.6460995,2.6460995 0 0 0 0.0156,0.0098 c -0.5012,0.837776 -1.00407,1.670764 -1.58594,2.767578 -2.09774,3.954236 -3.23559,5.061283 -4.375002,5.476563 -1.286306,0.468809 -2.241416,0.360645 -3.390625,-0.177735 -1.149208,-0.538379 -2.415304,-1.624246 -3.580078,-3.078124 a 2.6460995,2.6460995 0 0 0 -4.324218,0.28125 C 87.528094,50.176834 87.292605,49.87623 87.007812,49.533203 a 2.6460995,2.6460995 0 0 0 -0.01172,-0.01563 C 85.485178,47.726147 83.542005,46.330086 81.236326,45.800776 78.930647,45.271466 76.37048,45.700662 74.00781,47.04687 a 2.6460995,2.6460995 0 0 0 -0.04883,0.0293 c -0.210044,0.125847 -0.341418,0.149154 -0.77539,0.576172 -0.108493,0.106754 -0.248651,0.240997 -0.433594,0.546875 -0.184943,0.305877 -0.514349,0.887244 -0.347656,1.84375 0.166692,0.956506 1.020654,1.742548 1.53125,1.972656 0.510595,0.230108 0.792663,0.227125 0.998047,0.236328 0.821533,0.03681 0.860152,-0.07846 1.095703,-0.140625 0.235551,-0.06217 0.467785,-0.135632 0.742187,-0.226562 a 2.6460995,2.6460995 0 0 0 0.0059,-0.002 l -0.002,0.002 c 1.071161,-0.35663 3.375866,-0.125841 5.585937,1.546875 0.470619,0.356193 0.866086,0.630811 1.294922,0.865234 0.03164,0.0173 0.07922,0.03181 0.111328,0.04883 -0.0669,0.05715 -0.147824,0.108312 -0.222656,0.173828 -2.611329,2.180923 -3.609636,4.031307 -5.548828,4.875 -0.661121,0.287626 -1.016698,0.292973 -1.46875,0.185547 -0.344596,-0.08189 -0.62928,-0.140869 -0.962891,-0.177734 -0.166805,-0.01843 -0.334073,-0.03925 -0.648438,-0.01758 -0.157182,0.01084 -0.351872,0.02348 -0.683593,0.130859 -0.331721,0.107381 -0.928789,0.305274 -1.44336,1.117187 -0.514571,0.811914 -0.4127,2.03385 -0.15625,2.574219 0.256451,0.54037 0.495769,0.729706 0.66211,0.876953 0.33268,0.294495 0.498965,0.363276 0.660156,0.447266 0.322382,0.16798 0.582122,0.264384 0.912109,0.380859 a 2.6460995,2.6460995 0 0 0 0.03711,0.01367 c 0.720773,0.242569 1.44293,0.3699 2.152344,0.408203 -0.139463,0.09652 -0.282537,0.171558 -0.421876,0.269532 a 2.6460995,2.6460995 0 0 0 -0.179687,0.138672 c -0.482964,0.405826 -2.461483,1.873824 -3.902344,2.960937 -1.339274,0.339254 -3.032529,0.642755 -4.492187,0.962891 -0.08369,-0.0078 -0.187134,0.0104 -0.273438,0.002 -1.359886,-0.13314 -3.549601,-0.417811 -7.427734,0.640625 l 0.736328,-0.09375 c -1.021462,-0.01488 -1.930103,0.124536 -2.724609,0.375 -0.794507,0.250464 -1.460784,0.468154 -2.220703,1.351562 -0.37996,0.441705 -0.933067,1.295235 -0.69336,2.50586 0.239707,1.210624 1.259863,1.926179 1.873047,2.15625 1.212968,0.455113 1.899853,0.271167 2.845703,0.0918 1.0943,-0.192854 1.924314,-0.422135 2.970703,-0.61914 -0.06645,0.08208 -0.137313,0.163696 -0.248047,0.365234 -0.130842,0.238136 -0.459168,0.601026 -0.30664,1.669922 0.07626,0.534448 0.422785,1.23521 0.908203,1.648438 0.485418,0.413227 0.973434,0.546661 1.302734,0.599609 0.658602,0.105896 0.893096,0.001 1.080078,-0.04492 0.373965,-0.09194 0.480352,-0.159334 0.607422,-0.21875 a 2.6460995,2.6460995 0 0 0 0.02148,-0.01172 c 4.17757,-2.001077 7.312632,-4.351806 10.271484,-7.166015 a 2.6460995,2.6460995 0 0 0 0.05469,-0.05469 c 9.835319,-2.845139 17.26345,-6.586822 23.318366,-12.78125 0.0713,-0.02432 0.12172,-0.05185 0.19336,-0.07617 l -0.16211,0.04687 c 0.004,-0.004 0.008,-0.0077 0.0117,-0.01172 3.32478,-0.805395 5.80784,-3.064575 7.5039,-5.712891 1.71477,-2.677512 2.78774,-5.799671 3.6211,-8.908203 a 2.6460995,2.6460995 0 0 0 0.0879,-0.564453 c 0.0143,-0.31367 0.19719,-0.899588 -0.62305,-1.882813 -0.41012,-0.491612 -1.19649,-0.896526 -1.82031,-0.951172 -0.0682,-0.006 -0.0794,0.02483 -0.14258,0.02344 a 2.6460995,2.6460995 0 0 0 -0.44531,-0.667969 c -0.15723,-0.171756 -0.3759,-0.283218 -0.53907,-0.449219 -4.95979,-5.045923 -12.578619,-7.511718 -21.267578,-8.533203 -3.775563,-0.44387 -7.441249,-1.53913 -10.939454,-0.857422 -2.926042,0.570203 -5.674249,2.057008 -8.326171,3.808594 -0.74162,-0.996837 -1.687911,-1.832114 -2.712891,-2.572265 -1.022603,-0.738435 -2.167797,-1.392864 -3.740234,-1.417969 -0.66318,-0.01059 -1.366125,0.304627 -2.023438,0.677734 -1.020296,-0.451428 -2.048597,-0.814354 -3.083984,-0.998047 z M 87.708984,53.3125 c 0.07216,0.136169 0.190513,0.253808 0.267578,0.388672 l -0.0098,0.0059 c 0.01388,0.01733 0.03099,0.03154 0.04492,0.04883 0.881099,1.52629 2.084599,2.916402 3.552734,4.039063 -1.680693,0.6852 -3.511022,1.318073 -5.09375,2.080078 0.400792,-0.529628 0.837575,-1.054969 1.189453,-1.580078 0.117154,-0.165609 0.230597,-0.326326 0.347656,-0.511719 0.06519,-0.103248 0.130798,-0.209863 0.214844,-0.375 0.08405,-0.165137 0.243789,-0.259964 0.316406,-1.066406 0.03631,-0.403221 0.04628,-1.268758 -0.716796,-2.078125 -0.181266,-0.192261 -0.395565,-0.230964 -0.59961,-0.347656 0.11828,-0.109544 0.269331,-0.12237 0.365235,-0.253907 0.08919,-0.122323 0.05819,-0.224681 0.121093,-0.349609 z"
         id="path1182" />
      <path
         id="rect1367"
         style="fill:url(#radialGradient1061);fill-opacity:1;stroke:none;stroke-width:1.77411;stroke-linecap:round;stroke-linejoin:round;stroke-miterlimit:4;stroke-dasharray:none;stroke-opacity:1;paint-order:markers fill stroke"
         d="m 11.150619,64.429845 33.605337,-5.672067 c 8.373773,-5.6592 21.508105,-18.061951 30.503971,-23.456362 l 19.082342,2.079883 c 8.374041,1.362311 10.715731,4.598749 14.130931,7.501668 -1.8143,5.191002 -3.05892,8.911379 -8.22701,12.292977 -6.99427,2.260437 -17.306695,9.854549 -25.861633,12.812455 -5.452561,1.885246 -11.106495,-2.336737 -13.578733,0.22143 -10.354526,10.714427 -25.49159,21.108502 -42.363409,21.049598 z"
         sodipodi:nodetypes="ccccccsscc" />
      <path
         style="fill:#fcc807;stroke-width:0.0767268"
         d="m 41.257039,54.751509 c -0.180104,-0.646841 -0.387489,-3.480166 -0.371057,-5.069828 0.288179,-7.736437 3.665221,-11.080033 9.834343,-13.780953 1.662391,-0.708997 4.453025,-1.207879 7.185917,-1.105046 0.906164,0.456834 1.754433,0.841991 2.055353,0.201815 2.786549,0.264969 5.405718,2.129824 6.081291,4.442504 -0.580421,0.5157 -0.650875,0.565672 -1.264133,1.095834 -0.121416,-0.0726 -0.316615,-0.172185 -0.471791,-0.23347 -4.544958,-1.794982 -10.254069,0.141682 -12.063995,3.042191 -0.174754,0.294649 -0.904312,1.634417 -1.621227,2.977264 -1.685427,3.156943 -2.393697,4.212629 -3.903104,5.817604 -0.861304,0.91584 -3.386131,3.17537 -3.756434,3.36173 -0.893588,0.464971 -1.521423,0.321873 -1.705129,-0.749648 z m 11.743713,-8.536627 c 0.01675,-1.914289 1.675547,-4.034385 3.214083,-4.704759 1.634613,-0.712232 5.818209,-1.298243 7.540438,-0.402434 0.07088,0.03687 0.167352,0.09423 0.211969,0.133011 -0.174866,0.20078 -0.331811,0.367204 -0.446541,0.657762 -3.611626,0.199193 -4.558569,2.251618 -5.840332,4.883435 -0.713047,1.415687 -1.481422,2.074095 -2.476805,2.12234 -1.022903,0.03234 -2.212049,-1.6187 -2.202749,-2.689354 z"
         id="path1038"
         sodipodi:nodetypes="sccccccscssccsssccccsss" />
      <path
         style="fill:#9c66a4;stroke-width:0.0705674"
         d="m 52.722915,68.379481 c -2.342524,-0.865027 -3.058525,-3.470665 -3.767522,-5.503023 -0.340128,-0.982779 -0.422589,-1.589593 -0.351249,-2.584675 0.05909,-0.824396 0.173118,-1.323094 0.90408,-3.954946 0.08969,-0.322886 0.35025,-0.552637 0.594606,-0.524266 0.267086,0.03102 0.436441,0.252873 0.487763,0.638978 0.116341,0.875295 0.401248,1.850247 1.220651,4.177072 1.581484,4.490874 1.721877,4.919379 1.648252,6.95872 -0.02022,0.561079 -0.08186,1.033916 -0.736581,0.79214 z m 2.331731,-17.047087 c 0.418094,0.833583 0.453924,2.531247 2.006388,8.029287 0.331795,1.175053 0.664116,2.445496 0.738486,2.823214 0.1517,0.770417 0.197934,1.794391 0.133988,2.967385 -0.04265,0.782449 -0.04458,0.78994 -0.244695,0.948409 -0.233203,0.184683 -0.32394,0.201694 -0.574055,0.0082 -1.913869,-1.48015 -4.00633,-9.538982 -3.029361,-14.176538 0.144339,-0.538259 0.679379,-1.177955 0.969253,-0.60002 z M 88.974452,38.53237 c 1.131048,2.66848 1.074253,6.397022 0.374857,8.642901 -0.352279,1.131221 -0.485622,1.46478 -0.894204,1.451237 -0.24798,-0.0083 -0.339463,-0.138922 -0.619658,-0.522983 -1.869359,-2.562339 -2.882366,-7.661801 -1.239406,-9.967369 0.506089,-0.710198 1.73216,-1.128482 2.378411,0.396214 z m -10.825624,8.88337 c -0.996993,-3.51193 -1.055168,-7.132402 0.01646,-10.050887 0.421106,-1.146848 4.834813,-0.803816 4.78709,0.15677 -0.186712,3.75817 0.909461,7.843152 1.390916,11.684499 -1.536758,-1.529566 -3.215336,-2.220499 -6.194463,-1.790382 z m -3.957034,14.1649 c -0.141447,-0.309023 -0.264885,-0.585404 -0.352807,-0.792448 -1.143091,-2.691834 -2.996539,-9.012172 -3.64449,-12.554621 -0.624536,-3.414429 -0.744927,-6.621689 0.733233,-9.610526 0.3804,-0.769168 2.797855,-2.456732 3.317231,-1.161042 0.05243,0.130803 0.06409,0.766166 0.07428,0.95104 0.04975,0.90331 0.08483,2.157883 0.02393,5.295365 -0.124936,6.438334 0.02526,8.5314 0.982151,13.682935 0.18174,0.978385 0.35099,1.801567 0.354719,1.834981 0.07198,0.644995 0.189083,1.347486 0.297899,2.060887 0.377887,4.804631 -0.196786,3.756196 -1.786142,0.293429 z M 66.906187,48.705646 c -0.02125,3.761963 0.147377,4.724647 1.517973,8.665698 0.661735,1.902759 0.872898,2.695643 1.14212,4.288461 0.147699,0.873842 0.131278,1.136637 -0.07433,1.189313 -0.207082,0.05309 -0.423557,-0.132721 -1.1953,-1.025802 -0.988712,-1.144153 -1.606377,-2.04502 -2.242582,-3.270804 -1.568737,-3.02249 -2.249054,-5.11528 -2.666818,-8.203646 -0.265834,-1.965204 -0.314796,-3.023081 -0.191331,-4.134191 0.11878,-1.068658 0.22363,-1.616876 0.67391,-2.26792 0.776645,-1.122925 1.384412,-1.656333 1.783706,-1.395706 1.031676,1.974797 1.251617,4.668457 1.252652,6.154597 z m -6.731635,-0.237661 c 0.390292,1.37174 0.501925,1.835432 0.976117,4.258159 0.431705,2.205655 0.811528,3.752871 1.520238,6.192709 0.617141,2.124621 0.737623,2.785777 0.754495,4.140368 0.01145,0.918525 -0.03294,1.119106 -0.276241,1.248532 -0.217681,0.115785 -0.658879,-0.238053 -1.626582,-1.304508 -1.319182,-1.453802 -2.518425,-4.432763 -3.196826,-7.941027 -0.404727,-2.09299 -0.447449,-3.438671 -0.148285,-4.670433 0.123524,-0.508578 0.532488,-1.980335 0.83228,-2.443098 0.933882,-1.441553 1.043092,0.09152 1.164804,0.519298 z"
         id="path1036"
         sodipodi:nodetypes="scssssssssssssscsssssssscsscccscsssscsccsscsssccsssccssssssssss" />
      <path
         style="color:#000000;font-style:normal;font-variant:normal;font-weight:normal;font-stretch:normal;font-size:medium;line-height:normal;font-family:sans-serif;font-variant-ligatures:normal;font-variant-position:normal;font-variant-caps:normal;font-variant-numeric:normal;font-variant-alternates:normal;font-variant-east-asian:normal;font-feature-settings:normal;font-variation-settings:normal;text-indent:0;text-align:start;text-decoration:none;text-decoration-line:none;text-decoration-style:solid;text-decoration-color:#000000;letter-spacing:normal;word-spacing:normal;text-transform:none;writing-mode:lr-tb;direction:ltr;text-orientation:mixed;dominant-baseline:auto;baseline-shift:baseline;text-anchor:start;white-space:normal;shape-padding:0;shape-margin:0;inline-size:0;clip-rule:nonzero;display:inline;overflow:visible;visibility:visible;isolation:auto;mix-blend-mode:normal;color-interpolation:sRGB;color-interpolation-filters:linearRGB;solid-color:#000000;solid-opacity:1;vector-effect:none;fill:#000000;fill-opacity:1;fill-rule:nonzero;stroke:none;stroke-width:5.29167;stroke-linecap:round;stroke-linejoin:round;stroke-miterlimit:4;stroke-dasharray:none;stroke-dashoffset:0;stroke-opacity:1;paint-order:markers stroke fill;color-rendering:auto;image-rendering:auto;shape-rendering:auto;text-rendering:auto;enable-background:accumulate;stop-color:#000000"
         d="m 59.714047,74.090591 c 19.60213,-3.454601 30.60293,-7.24712 39.27526,-16.551772 -4.2991,0.309848 -7.23066,-2.21271 -8.95677,-5.486524 2.66735,3.329406 6.07766,5.496266 9.94134,4.088102 2.050803,-0.747452 3.618153,-2.596336 5.807563,-6.72338 1.55356,-2.928419 3.00986,-5.212537 2.98571,-4.682888 -1.59524,5.950441 -4.10006,11.570549 -9.270083,12.765762 -8.342784,2.832527 -14.886263,5.729594 -21.342041,10.268844 -2.406297,2.021969 -14.460695,10.712047 -12.787749,9.929806 3.92359,-1.87942 6.768725,-4.012406 9.591335,-6.697033 -8.46801,2.946511 -6.71353,-0.102657 -13.90366,1.859702 -3.000229,-0.0437 -4.289627,1.784652 -1.340905,1.229381 z M 23.247257,62.533813 c 9.22271,-4.450847 17.65952,-3.905554 18.1657,-3.87414 0.50618,0.03136 1.45463,0.04061 1.73102,-0.0069 0.29492,-0.05064 1.26478,-0.194133 1.82033,-0.509667 7.99731,-4.761615 13.89998,-12.765896 21.0621,-18.727773 -3.02031,-4.418303 -5.50211,-4.753807 -6.16039,-3.87541 0.83649,0.357625 1.88485,1.736595 1.88485,1.736595 -10.42292,-5.31202 -20.38866,1.077167 -23.36118,14.035604 -2.09355,-9.373808 10.32534,-22.673089 20.81535,-16.148404 1.36391,-3.348948 6.55409,1.330362 6.9603,4.094707 3.2439,-2.526769 6.6791,-4.481558 9.97399,-5.123639 2.34249,-0.45649 6.16068,0.422516 10.12378,0.888434 8.64721,1.016577 15.927003,3.511812 20.163973,8.140392 -6.679963,-4.220538 -12.865303,-4.275551 -18.882643,-4.833887 -5.47397,-0.559767 -11.53537,-1.568609 -15.37841,0.12099 -1.51946,0.668033 -6.60608,4.611881 -8.3762,5.811508 -2.32677,1.576882 -7.26552,8.289243 -17.60527,15.158603 -0.36896,0.245121 -1.67556,0.801185 -2.11834,0.89553 -0.40866,0.08706 -2.0388,0.466847 -2.50019,0.420818 -5.51515,-0.550151 -12.90595,1.67827 -18.31877,1.796626 z m 52.49914,-0.115929 c -1.04525,-0.368941 -0.94471,-0.527585 0.16695,-0.263414 1.00206,0.23813 2.03555,0.144433 3.1364,-0.3345 2.78216,-1.210447 4.02581,-3.4682 6.19967,-5.280431 0.97627,-0.853172 0.6973,-0.400457 0.21275,0.282683 -2.33424,3.483395 -5.56521,6.992492 -9.71577,5.595662 z M 75.937857,49.3738 c -0.97158,0.321959 -1.18738,0.312309 -0.61974,-0.02779 3.79394,-2.161721 7.19123,-1.043165 9.6548,1.877785 0.88399,1.064748 0.60451,1.326356 -1.01705,0.09906 -2.7736,-2.099229 -5.84192,-2.673627 -8.01801,-1.949125 z"
         id="path1184" />
      <path
         style="fill:#12110f;stroke-width:0.0781316"
         d="m 34.905282,65.626211 c -0.15609,-0.114758 0.253852,-0.528344 0.73431,-0.740839 0.470629,-0.208147 1.575769,-0.364257 1.750305,-0.247235 0.10274,0.06891 0.08839,0.102474 -0.105798,0.247766 -0.356583,0.266802 -1.206969,0.673347 -1.514093,0.72385 -0.530111,0.08716 -0.762541,0.09158 -0.864726,0.01645 z m 4.371234,-0.09079 c -0.0905,-0.106357 0.300811,-0.459422 0.61801,-0.557618 0.347001,-0.10742 1.103623,-0.08455 1.094142,0.03312 -0.0086,0.107144 -0.511944,0.44576 -0.805389,0.54184 -0.267808,0.08768 -0.826504,0.07703 -0.906767,-0.01728 z m 0.103753,-1.965039 c 0.01619,-0.200936 0.405495,-0.493331 0.876053,-0.657974 0.503998,-0.176333 1.976726,-0.165553 1.907379,0.01397 -0.02243,0.05809 -0.453422,0.275238 -0.957724,0.482495 -0.809243,0.332593 -0.970939,0.372481 -1.376998,0.339764 -0.392337,-0.03161 -0.458408,-0.0579 -0.44871,-0.178251 z m -3.446718,-0.81496 c -0.448373,-0.133091 0.232673,-0.756017 1.005012,-0.919246 0.652788,-0.137964 1.27375,-0.129807 1.442286,0.01893 0.143917,0.127012 0.143726,0.129886 -0.01916,0.282941 -0.09042,0.08505 -0.457547,0.269605 -0.815849,0.410127 -0.636611,0.249673 -1.217815,0.324373 -1.612451,0.207225 z M 52.583598,49.021076 c -0.08359,-0.0396 -0.225388,-0.249656 -0.315117,-0.466841 -0.246509,-0.596667 -0.162279,-1.390935 0.218126,-2.056813 0.155257,-0.271772 0.371872,-0.566027 0.481361,-0.653906 0.481726,-0.386627 1.160567,-0.509539 1.347128,-0.243924 0.0758,0.107906 0.05553,0.279561 -0.116473,0.987113 -0.280328,1.152959 -0.502887,1.677259 -0.876627,2.065105 -0.371278,0.385295 -0.53335,0.466355 -0.738371,0.369268 z m 3.780897,-3.134753 c -0.38791,-0.0999 -0.495059,-0.179248 -0.480822,-0.355952 0.01493,-0.185205 0.763379,-0.827458 1.222581,-1.049099 1.137512,-0.549054 2.649097,-0.306237 2.59089,0.416175 -0.02311,0.286767 -0.238767,0.420091 -1.252621,0.774375 -0.875264,0.305856 -1.48235,0.368456 -2.080028,0.214501 z m -2.665089,-2.41691 c -0.163812,-0.375871 0.266934,-1.141128 0.842658,-1.497046 0.193151,-0.119403 0.528434,-0.25456 0.745066,-0.300342 0.217574,-0.04598 0.599292,-0.05787 0.89235,-0.04309 0.334197,0.08314 0.223759,0.220855 0.05894,0.432921 -0.142636,0.136276 -0.319217,0.301374 -0.509603,0.475776 -0.815967,0.747463 -1.205842,0.98755 -1.741587,1.072542 -0.16638,0.02642 -0.228134,-0.0038 -0.287821,-0.140759 z m 5.450449,-0.700981 c -0.662667,-0.188374 -0.84047,-0.304759 -0.792249,-0.518584 0.07788,-0.345356 1.864336,-0.822607 2.521222,-0.673547 0.376014,0.08533 0.69831,0.41799 0.675786,0.697533 -0.05565,0.690645 -1.018443,0.888666 -2.404759,0.494598 z m 2.637764,-1.741781 c -0.579117,-0.217193 -1.54784,-0.720572 -1.640456,-0.852435 -0.1258,-0.179107 0.0025,-0.243588 0.648911,-0.326076 0.665515,-0.08494 1.569184,-0.0297 1.980516,0.12104 0.483406,0.177168 0.635259,0.695151 0.305337,1.041539 -0.195478,0.20523 -0.770674,0.212303 -1.294307,0.01593 z m -5.560201,-1.4651 c -0.306469,-0.17044 -0.303159,-0.429215 0.0095,-0.745356 0.528468,-0.534306 1.552982,-0.762075 2.36115,-0.524929 0.429086,0.125903 0.890979,0.423022 0.933766,0.600647 0.01204,0.04994 -0.165848,0.186474 -0.3953,0.30338 -0.922002,0.469734 -2.390613,0.654638 -2.909143,0.366258 z m 6.905854,-0.342328 c -0.272503,-0.09587 -0.613012,-0.247586 -0.75668,-0.337195 -0.322633,-0.201224 -0.731614,-0.64834 -0.720395,-0.787573 0.02577,-0.319927 1.209721,-0.229142 1.877017,0.143958 0.442512,0.247406 0.950605,0.757342 0.935942,0.93933 -0.01148,0.142402 -0.35071,0.271308 -0.630473,0.239572 -0.115454,-0.01333 -0.432908,-0.102231 -0.705412,-0.198082 z"
         id="path1034"
         sodipodi:nodetypes="sscsssscscsccssssssscsscsccssscscssscscsscsssccscssssssssssssssccsscccssssscss" />
      <path
         style="display:inline;fill:#fcc807;stroke-width:0.0605222"
         d="m 38.926627,81.232652 c -0.891544,-0.482257 -1.09139,-1.645663 -0.503896,-2.933435 1.236501,-2.710367 3.138212,-4.709943 5.696988,-5.990167 1.064548,-0.532622 1.63572,-0.785688 1.674683,-0.74198 0.02069,0.02324 -0.124802,0.259634 -0.323318,0.525372 -0.440397,0.589514 -0.721911,1.078303 -1.176519,2.042789 -0.537525,1.140389 -1.023311,2.366059 -1.434091,3.618316 -0.206266,0.628785 -0.450376,1.30192 -0.542467,1.495854 -0.450893,0.949525 -1.065937,1.642684 -1.730061,1.94981 -0.339669,0.157077 -0.460388,0.180008 -0.906615,0.172209 -0.41114,-0.0072 -0.563084,-0.0349 -0.754704,-0.138768 z M 33.49753,78.32552 c -0.265281,-0.155868 -0.383458,-0.489259 -0.422428,-1.191702 -0.03417,-0.615843 0.06417,-1.31285 0.264688,-1.875928 0.337561,-0.947958 1.34138,-2.277913 2.359838,-3.126522 1.016695,-0.847148 2.308361,-1.417935 6.577589,-2.90665 0.980259,-0.341825 2.219222,-0.788315 2.753251,-0.992192 0.897535,-0.342657 0.976329,-0.362399 1.041868,-0.261037 0.039,0.06034 0.06851,0.124766 0.06559,0.143226 -0.0029,0.01847 -0.291833,0.235359 -0.64201,0.481977 -1.779172,1.25302 -3.505265,3.053044 -5.605741,5.84584 -2.235083,2.971779 -3.662629,3.977418 -5.671369,3.995237 -0.42535,0.0038 -0.559296,-0.01709 -0.721264,-0.112278 z m 11.100335,-2.750291 c -0.120244,-0.134889 -0.189719,-0.493239 -0.168525,-0.86922 0.0407,-0.719316 0.583466,-1.437563 1.293948,-1.711801 0.631794,-0.243858 0.814207,-0.17069 0.576252,0.231157 -0.05713,0.09649 -0.171598,0.422733 -0.254368,0.725004 -0.244169,0.891635 -0.348162,1.101421 -0.711964,1.436275 -0.351201,0.323245 -0.566172,0.37838 -0.735343,0.188585 z m -14.2147,-3.459354 c -0.08619,-0.03735 -0.18498,-0.148982 -0.219538,-0.248136 -0.087,-0.24965 0.06673,-0.507973 0.819232,-1.376722 0.726695,-0.838947 1.70599,-1.719415 2.390975,-2.149686 1.194116,-0.750091 3.310547,-1.757851 4.67497,-2.226052 0.907343,-0.311355 2.002062,-0.607427 4.057152,-1.097274 1.855086,-0.442177 2.058763,-0.485997 2.056257,-0.442389 -8.92e-4,0.01566 -0.405881,0.299827 -0.899952,0.631461 -0.926395,0.621807 -1.687807,1.26878 -3.4577,2.938004 -1.122736,1.058876 -1.872095,1.623156 -3.082734,2.321351 -1.893327,1.091922 -2.953,1.436962 -5.045598,1.642899 -1.052973,0.103633 -1.068688,0.103706 -1.293065,0.0065 z m 12.493032,0.07267 c 0.004,-0.06788 0.313905,-0.467789 0.6083,-0.78477 0.1408,-0.151607 0.438612,-0.390749 0.661795,-0.531419 0.411571,-0.259414 1.06308,-0.5204 1.148963,-0.460256 0.07757,0.05436 -0.345552,0.530368 -0.862641,0.970537 -0.62753,0.534175 -1.568804,1.021564 -1.556417,0.805908 z M 30.040351,69.007022 c -0.302196,-0.13432 0.0101,-1.037319 0.506056,-1.46316 0.552263,-0.474203 1.274754,-0.720071 2.489887,-0.847344 0.938722,-0.09832 1.204237,-0.08643 1.169176,0.05221 -0.0272,0.10757 -0.185757,0.208901 -0.792972,0.506794 -0.202362,0.09927 -0.593793,0.35648 -0.86985,0.571577 -1.105646,0.861479 -1.331589,1.01463 -1.630924,1.105524 -0.403586,0.122549 -0.705131,0.148296 -0.871373,0.0744 z m 9.113388,0.442145 c 0.0032,-0.05579 0.286624,-0.359444 0.629821,-0.674768 0.857134,-0.787505 1.734385,-1.286998 2.828156,-1.610289 0.652616,-0.192902 0.987165,-0.240458 1.0804,-0.153584 0.128668,0.119898 0.02164,0.228072 -0.508985,0.514561 -0.280239,0.151297 -0.905787,0.52478 -1.390101,0.829953 -0.860962,0.542497 -2.056132,1.112565 -2.448456,1.167859 -0.159011,0.0224 -0.195549,0.0083 -0.190831,-0.07377 z m -10.33346,-3.143295 c -0.896739,-0.181417 -1.10677,-0.324815 -1.082954,-0.739425 0.01985,-0.34551 1.032859,-1.548252 1.765072,-2.095665 0.475942,-0.355817 1.30501,-0.803539 1.74529,-0.942508 0.36554,-0.115372 2.983074,-0.590717 4.384605,-0.796238 2.227016,-0.326565 4.340367,-0.418948 6.466479,-0.282649 1.405025,0.09011 1.750247,0.13566 1.744799,0.230515 -0.0015,0.02692 -0.105861,0.06202 -0.231818,0.0781 -0.125955,0.01612 -0.645463,0.139945 -1.154462,0.275284 -1.058993,0.281606 -2.762522,0.977057 -4.219263,1.722489 -0.515278,0.263675 -1.161422,0.589308 -1.435875,0.723617 -1.620297,0.792948 -4.030365,1.639433 -5.382722,1.890565 -0.655232,0.121679 -1.823289,0.09288 -2.599149,-0.06411 z m 11.04262,-1.755956 c 0.0029,-0.01923 0.155715,-0.140171 0.339445,-0.268701 0.858124,-0.600331 1.621955,-0.917145 2.534206,-1.051134 0.498307,-0.07318 1.203322,-0.06056 1.198607,0.02151 -0.0034,0.05724 -1.338946,0.740552 -1.967419,1.00657 -0.580465,0.245695 -0.878849,0.319804 -1.168489,0.29021 -0.132584,-0.01364 -0.398725,-0.01085 -0.591407,0.0059 -0.192681,0.01692 -0.347911,0.01486 -0.344941,-0.0044 z"
         id="path1038-3"
         sodipodi:nodetypes="csssssscscccscsssscssscscssssssssssssssssssssssssssssssssssssssssssssssssssssssssssssss" />
      <path
         style="color:#000000;font-style:normal;font-variant:normal;font-weight:normal;font-stretch:normal;font-size:medium;line-height:normal;font-family:sans-serif;font-variant-ligatures:normal;font-variant-position:normal;font-variant-caps:normal;font-variant-numeric:normal;font-variant-alternates:normal;font-variant-east-asian:normal;font-feature-settings:normal;font-variation-settings:normal;text-indent:0;text-align:start;text-decoration:none;text-decoration-line:none;text-decoration-style:solid;text-decoration-color:#000000;letter-spacing:normal;word-spacing:normal;text-transform:none;writing-mode:lr-tb;direction:ltr;text-orientation:mixed;dominant-baseline:auto;baseline-shift:baseline;text-anchor:start;white-space:normal;shape-padding:0;shape-margin:0;inline-size:0;clip-rule:nonzero;display:inline;overflow:visible;visibility:visible;isolation:auto;mix-blend-mode:normal;color-interpolation:sRGB;color-interpolation-filters:linearRGB;solid-color:#000000;solid-opacity:1;vector-effect:none;fill:#ffffff;fill-opacity:1;fill-rule:nonzero;stroke:none;stroke-width:5.292;stroke-linecap:round;stroke-linejoin:round;stroke-miterlimit:4;stroke-dasharray:none;stroke-dashoffset:0;stroke-opacity:1;paint-order:markers stroke fill;color-rendering:auto;image-rendering:auto;shape-rendering:auto;text-rendering:auto;enable-background:accumulate;stop-color:#000000"
         d="m 112.35894,49.654353 c -4.13892,0.34799 -8.5638,1.534603 -13.123049,3.226563 -8.859539,3.287815 -18.38493,8.676683 -27.597657,14.597656 -1.850245,-0.104654 -3.406905,-0.346641 -5.121094,-0.466797 -1.946906,-0.136468 -4.16755,0.02152 -6.765625,0.982422 -3.157308,1.167751 -5.523876,3.935643 -7.384766,6.308594 -0.351609,0.448351 -0.603175,0.776507 -0.853515,1.210937 -0.125171,0.217216 -0.278268,0.410044 -0.402344,1.029297 -0.06204,0.309627 -0.145857,0.788932 0.107422,1.486328 0.253278,0.697397 1.042177,1.424849 1.679687,1.638672 1.27502,0.427646 1.633281,0.05317 1.923828,-0.05469 0.290548,-0.107861 0.465849,-0.20343 0.644532,-0.302735 0.357365,-0.19861 0.689772,-0.414911 1.078125,-0.675781 a 2.6462645,2.6462645 0 0 0 0.0078,-0.0059 c 1.927653,-1.305066 3.229144,-2.590621 4.337891,-3.419922 0.870987,-0.651467 1.657658,-1.015628 2.675781,-1.25 -4.694508,3.964571 -9.405349,7.52241 -15.935547,9.074219 -0.842837,0.200292 -3.814758,0.08543 -7.207031,0.06055 -3.197149,-0.02345 -6.955982,0.226224 -10.652344,1.523437 a 2.6462645,2.6462645 0 0 0 -0.392578,0.07227 c -0.549984,0.146466 -0.973907,0.263258 -1.300781,0.361328 -0.163437,0.04904 -0.297519,0.09043 -0.449219,0.144531 -0.07585,0.02705 -0.153077,0.05591 -0.28125,0.113281 -0.128173,0.05737 -0.19072,-0.141575 -0.917969,0.660157 -0.09091,0.100216 -0.306246,0.411456 -0.30664,0.412109 -3.95e-4,6.53e-4 -0.308453,0.753313 -0.308594,0.753906 -1.42e-4,5.93e-4 -0.01769,1.157671 -0.01758,1.158203 1.11e-4,5.33e-4 0.495729,1.077653 0.496093,1.078125 3.65e-4,4.72e-4 0.628289,0.585527 0.628907,0.585938 6.17e-4,4.11e-4 0.348113,0.198655 0.480469,0.251953 0.26471,0.106597 0.433184,0.136685 0.5625,0.158203 0.517262,0.08607 0.577961,0.03598 0.691406,0.02734 0.22689,-0.01726 0.340812,-0.03854 0.496094,-0.06445 0.310563,-0.05183 0.69639,-0.128019 1.214843,-0.236328 a 2.6462645,2.6462645 0 0 0 0.04297,-0.0078 c 4.599675,-1.041359 8.148831,-1.069774 10.970703,-0.878906 2.821872,0.190867 4.77578,0.720455 7.017578,0.478515 7.992776,-0.862702 16.324561,-6.97877 22.072266,-12.466796 l -0.160156,0.142578 c 6.813005,-5.52557 16.322061,-11.313551 25.730468,-15.328125 9.343646,-3.986943 18.638796,-6.095271 24.693366,-5.03125 -2.0994,3.260791 -4.30256,6.866663 -7.08594,9.503906 -3.50282,3.318914 -7.22443,5.108739 -13.652349,2.714844 a 2.6462645,2.6462645 0 0 0 -0.74609,-0.158203 2.6462645,2.6462645 0 0 0 -3.826174,-1.539063 c -2.432435,1.367291 -3.957903,1.666606 -5.816406,2.109375 -1.858504,0.442769 -4.114698,1.091154 -6.560547,2.964844 a 2.6462645,2.6462645 0 0 0 -0.0332,0.02539 c -1.707421,1.351628 -2.676566,3.253877 -3.197266,5.369141 -0.388458,1.578052 -0.506295,3.425009 0.199219,5.109375 -6.84012,1.495425 -13.676177,3.368185 -19.328125,6.982422 -6.85064,4.380537 -14.05853,10.612764 -21.132813,15.189444 a 2.6462645,2.6462645 0 0 0 -0.04883,0.0313 c -0.921984,0.62531 -1.766854,1.20791 -2.398437,1.65039 -0.315792,0.22123 -0.57694,0.40708 -0.779297,0.55468 -0.101179,0.0738 -0.186175,0.13563 -0.275391,0.20508 -0.04461,0.0347 -0.08666,0.0692 -0.158203,0.13086 -0.0012,0.001 -0.0086,0.0108 -0.0098,0.0117 a 2.6462645,2.6462645 0 0 0 -0.558593,0.65625 c -2.82e-4,4.7e-4 -0.0017,0.003 -0.002,0.004 -0.08744,0.14359 -0.335103,0.22101 -0.392578,1.26367 -0.02505,0.45441 0.214642,1.2534 0.716797,1.86133 l -0.01953,0.002 a 2.6462645,2.6462645 0 0 0 0.06445,0.0684 c 0.06032,0.0678 0.0754,0.16029 0.144531,0.2207 0.07851,0.0686 0.117811,0.0192 0.195313,0.0742 a 2.6462645,2.6462645 0 0 0 0.002,0.002 2.6462645,2.6462645 0 0 0 1.302734,0.4961 c 0.05679,0.003 0.177731,0.0853 0.22461,0.0859 0.719658,0.01 0.846933,-0.11824 1.007812,-0.17578 0.160879,-0.0575 0.264805,-0.10362 0.371094,-0.15234 0.399775,-0.18326 0.898611,-0.45066 1.712891,-0.88086 7.878674,-3.71054 11.990229,-7.72605 16.921875,-11.23046 4.245719,-3.017003 9.496407,-5.842315 18.707031,-8.404302 -0.193184,0.721199 -0.474,1.567046 -0.6875,2.199219 -0.688293,2.038037 -1.392092,3.097171 -2.365235,3.466797 -1.068197,0.405455 -2.234498,0.525945 -3.746093,0.722665 -1.511595,0.19671 -3.373864,0.5028 -5.308594,1.5332 a 2.6462645,2.6462645 0 0 0 -0.226563,0.13477 c -1.291256,0.863801 -2.326576,1.651991 -3.123046,2.359361 -0.398236,0.35368 -0.736459,0.68398 -1.042969,1.04492 -0.30651,0.36094 -0.64355,0.61949 -0.882813,1.61719 -0.119631,0.49885 -0.165774,1.42578 0.404297,2.25976 0.570071,0.83399 1.456316,1.1303 1.96875,1.19922 1.024868,0.13785 1.397952,-0.0846 1.875,-0.25 0.954098,-0.33072 1.976015,-0.86251 3.400391,-1.70898 l -0.142578,0.0781 c 1.153569,-0.59294 4.026095,-0.58502 7.316406,-1.7871 4.635086,-1.69341 6.988175,-4.33975 8.214844,-7.089845 0.411862,-0.923362 0.75095,-1.855739 1.105468,-2.787109 2.490148,-0.245591 5.039695,-0.793148 7.269532,-2.042969 1.90067,-1.065323 3.586746,-2.839129 4.314453,-5.097656 2.412652,-0.596477 5.413122,-1.385432 8.435542,-2.570313 2.73802,-1.073385 5.47942,-2.292902 7.36914,-4.339843 1.29021,0.791251 2.66848,1.573376 4.58594,2.123047 0.0128,0.103402 0.0273,0.243841 0.0273,0.24414 1.2e-4,6.1e-4 0.20484,0.612784 0.20507,0.613281 4.8e-4,9.95e-4 1.02643,1.128353 1.02735,1.128907 4.6e-4,2.77e-4 0.61466,0.269363 0.61523,0.269531 5.7e-4,1.68e-4 0.36323,0.08612 0.51367,0.09961 0.30089,0.02697 0.51649,9.88e-4 0.6836,-0.02734 0.66842,-0.113324 0.76218,-0.247174 0.89453,-0.322265 0.26469,-0.150183 0.34113,-0.220153 0.4414,-0.298828 0.20056,-0.15735 0.36701,-0.306959 0.55665,-0.486328 0.15138,-0.143181 0.72741,-0.632341 1.01367,-0.84961 0.23072,-0.175107 0.44476,-0.344505 0.63476,-0.505859 0.095,-0.08068 0.18172,-0.157818 0.28125,-0.251953 0.0995,-0.09413 0.12112,0.03902 0.53516,-0.648438 a 2.6462645,2.6462645 0 0 0 0.002,-0.0059 c 0.27023,-0.450595 0.51644,-1.352149 0.29102,-2.150391 -0.22543,-0.798241 -0.70848,-1.236613 -1.01953,-1.46875 -0.62212,-0.464272 -0.90684,-0.48036 -1.20899,-0.566406 -0.55574,-0.158264 -1.17571,-0.263917 -2.0332,-0.408203 a 2.6462645,2.6462645 0 0 0 -0.17383,-0.03516 c -10e-4,-2.37e-4 -0.003,2.36e-4 -0.004,0 -1.93371,-0.328105 -3.43429,-0.904897 -5.07226,-1.675782 0.0646,-0.182087 0.13734,-0.368787 0.19336,-0.544922 0.008,-0.02577 0.0135,-0.05454 0.0215,-0.08008 0.18261,-0.07989 0.37103,-0.09478 0.55274,-0.18164 5.58081,-2.667659 10.49692,-8.510188 13.46484,-18.050782 a 2.6462645,2.6462645 0 0 0 0.11719,-0.871093 c -0.004,-0.135604 0.096,-0.256033 -0.19141,-1 -0.14368,-0.371984 -0.528,-1.101919 -1.42773,-1.496094 -0.0137,-0.006 -0.0254,-1.48e-4 -0.0391,-0.0059 -0.23642,-0.459041 -0.51815,-0.759527 -0.70313,-0.917969 -0.58599,-0.50193 -0.96124,-0.635589 -1.48437,-0.865235 -3.41027,-1.653262 -7.2483,-2.145626 -11.37305,-1.798828 z M 96.728077,72.923885 a 2.6462645,2.6462645 0 0 0 1.013672,1.064453 c 0.128775,0.07495 0.281223,0.10794 0.412112,0.179687 l -0.006,0.01172 c 0.0225,0.0084 0.042,0.0054 0.0644,0.01367 2.218389,1.205562 4.705839,1.989527 7.322259,2.140625 -0.56818,0.349665 -0.95314,0.709753 -1.74023,1.054687 -3.02632,1.326253 -7.433718,2.35202 -12.371093,3.330079 -1.474922,0.292171 -3.152855,0.685957 -4.705078,0.982421 -0.103629,-0.849114 0.153896,-2.695027 0.535156,-3.310547 0.421764,-0.534423 2.326809,-1.796416 4.544922,-2.878906 1.658651,-0.80946 3.353502,-1.629232 4.929687,-2.58789 z m 21.841803,10.289062 c 0.14233,-0.0084 0.26182,0.04217 0.40625,0.02734 l -0.23438,0.01367 c 0.1032,-0.0014 0.169,0.02287 -0.10937,-0.01758 -0.009,-0.0013 -0.0526,-0.02242 -0.0625,-0.02344 z"
         id="path1092" />
      <path
         id="rect1348"
         style="display:inline;fill:url(#radialGradient1358);fill-opacity:1;stroke:none;stroke-width:2.646;stroke-linecap:round;stroke-linejoin:round;stroke-miterlimit:4;stroke-dasharray:none;stroke-opacity:1;paint-order:markers fill stroke"
         d="m 23.715616,89.063929 c 0.455825,0.05162 1.081405,-0.11925 1.437802,-0.748765 0.226774,-0.400557 11.043735,-2.034414 11.323599,-2.001029 16.194158,1.931793 27.22372,-7.250947 38.48679,-16.284253 6.638508,-4.507155 18.090704,-8.939291 27.064363,-13.4937 8.45705,-2.980597 14.96744,-1.418519 21.43187,-0.344136 -4.49741,9.597449 -10.68881,16.813745 -17.24767,23.565576 L 66.271918,90.961101 34.067517,112.42563 Z"
         sodipodi:nodetypes="cssccccccc" />
      <path
         style="display:inline;fill:#facd0b;stroke-width:0.0786032"
         d="m 59.074631,72.969821 c 1.99408,-1.53212 3.632963,-1.883559 4.890373,-2.189809 0.71034,-0.17302 2.21303,-0.26329 5.82615,-0.35001 l 1.94366,-0.0467 -0.0652,0.17892 c -0.0552,0.15134 -0.21543,0.21763 -1.03972,0.43 -0.53598,0.13809 -1.03593,0.28841 -1.111,0.33406 -0.0805,0.0489 -0.64487,0.0831 -1.37555,0.0832 -2.19313,8.2e-4 -3.3152,0.22738 -4.89412,0.99002 -1.25334,0.6054 -2.72279,1.45587 -3.46051,2.00285 -1.00041,0.74177 -2.188404,1.813572 -2.299164,2.119862 -0.0539,0.14894 -0.16401,0.163991 -0.20204,0.163991 -0.038,0 -0.516956,0.376597 -1.118466,0.657607 -1.08348,0.50617 -1.5575,0.624578 -1.511409,0.426663 0.637909,-2.164458 2.812163,-3.556279 4.416996,-4.800654 z"
         id="path1046-6"
         sodipodi:nodetypes="csscssscssssscc" />
      <path
         style="display:inline;fill:#facd0b;stroke-width:0.0786032"
         d="m 30.426767,89.406532 c -0.0652,-0.0379 -0.3953,-0.13976 -0.73349,-0.22639 -1.26679,-0.32453 -1.22443,-0.64248 0.20408,-1.53179 0.33479,-0.20842 0.60871,-0.42507 0.60871,-0.48144 0,-0.11239 -0.0183,-0.10775 1.72927,-0.43983 2.64861,-0.50333 5.4407,-0.83106 7.42801,-0.87191 1.46665,-0.0301 2.9461,0.0153 2.71182,0.0832 -0.23532,0.0683 0.0308,0.12062 2.4367,0.47938 3.23136,0.48186 3.29724,0.49859 3.17873,0.80742 -0.0654,0.17039 -0.25653,0.19684 -2.11759,0.29302 -1.93959,0.10024 -3.01569,0.19308 -4.63759,0.40014 -1.34276,0.17142 -2.69576,0.43313 -2.83747,0.54885 -0.0475,0.0388 -1.19706,0.17554 -2.5546,0.3039 -2.84246,0.26878 -4.41491,0.47321 -5.18007,0.67345 -0.0649,0.017 -0.17128,0 -0.23651,-0.038 z"
         id="path1046-5"
         sodipodi:nodetypes="csssssssssssscc" />
      <path
         style="fill:#fd0e55;stroke-width:0.0786032"
         d="m 34.516647,106.68705 c 0.853304,0 -1.090349,-0.28887 -1.124482,-0.68782 -0.0306,-0.35779 0.222484,-0.86418 0.839082,-1.67879 0.920282,-1.21584 1.882659,-1.80821 4.448831,-2.73842 1.198872,-0.43457 2.485908,-0.81302 6.251503,-1.838251 1.577962,-0.42962 3.523394,-0.98244 4.323184,-1.22849 1.146233,-0.35262 4.250509,-1.325806 4.775148,-1.496996 0.05404,-0.01765 0.09825,0.0012 0.09825,0.0418 0,0.116893 -1.815707,1.281576 -4.165972,2.672246 -1.188876,0.703461 -2.586049,1.534921 -3.104831,1.847671 -3.218456,1.94024 -7.250064,4.12309 -8.614676,4.66427 -1.305884,0.5179 -5.030971,0.44278 -3.726041,0.44278 z m -3.517496,-3.47192 c -0.237316,-0.0616 -0.162068,-0.3794 0.15597,-0.65864 0.416153,-0.36539 1.486199,-1.051 2.075196,-1.32965 0.861925,-0.40775 1.561443,-0.26719 1.561443,0.31376 0,0.54909 -0.809034,1.04201 -2.364844,1.4408 -0.866974,0.22223 -1.238107,0.28299 -1.427765,0.23373 z m 3.51346,-2.89726 c -0.0023,-0.511221 -0.626002,-0.777051 -0.400537,-1.316671 0.149806,-0.35852 1.153526,-1.26203 1.712086,-1.541155 0.25817,-0.129005 0.620365,-0.257197 0.80488,-0.284868 0.632983,-0.09492 1.312812,0.228876 1.584784,0.754823 0.134765,0.26059 0.150549,0.83346 0.03166,1.14881 -0.203207,0.539 -0.92451,1.031101 -1.821198,1.242511 -0.645013,0.15207 -1.600041,0.15035 -1.911673,-0.003 z m -4.564205,-0.17965 c -0.516547,-0.326831 -0.386214,-0.892591 0.336632,-1.461341 0.575117,-0.4525 1.552849,-0.96683 1.958144,-1.03006 0.730996,-0.114048 1.340193,0.38689 1.268347,1.04295 -0.07209,0.65825 -0.479386,0.99622 -1.588791,1.318331 -0.989525,0.28729 -1.656433,0.33125 -1.974332,0.13012 z m 15.020352,-1.666921 c -0.07849,-0.12699 0.06654,-0.25717 0.952528,-0.85505 0.929346,-0.627132 1.980831,-1.158859 2.887747,-1.460316 0.526081,-0.17487 0.6544,-0.191692 0.884041,-0.115901 0.327437,0.108062 0.50493,0.344336 0.50493,0.672157 0,0.323132 -0.282128,0.621771 -0.806118,0.853302 -1.405665,0.621108 -4.240313,1.201618 -4.423128,0.905808 z m -4.615817,-0.12934 c 0,0.0782 -0.137555,-0.0986 -0.137555,-0.17521 0,-0.44102 1.54958,-1.019302 1.870759,-0.698119 0.290016,0.290019 -0.07562,0.652729 -0.816125,0.809599 -0.556828,0.11796 -0.917079,-0.18395 -0.917079,0.0637 z m 27.734092,-0.931845 c -0.369967,-0.0521 -1.978176,-0.363801 -2.081765,-0.503202 -0.235797,-0.317315 -0.01716,-0.535571 1.142525,-1.140589 1.058065,-0.551992 1.741264,-0.79537 2.688412,-0.957712 1.744009,-0.29892 2.866387,-0.248386 4.302718,0.193751 0.978978,0.301351 1.632708,0.307086 2.586895,0.02271 0.383122,-0.114181 0.800528,-0.225294 0.927573,-0.246907 l 0.231009,-0.0393 -0.302764,0.423763 c -0.419772,0.587547 -1.188811,1.367737 -1.625318,1.648892 -0.798814,0.514509 -1.090394,0.568156 -3.171517,0.583536 -1.037564,0.0077 -2.363994,0.03472 -2.947624,0.06012 -0.583629,0.02541 -1.162539,0.03769 -1.471512,-0.0058 z M 30.714818,96.991719 c -0.13039,0 -0.167636,-0.217982 -0.167636,-0.279513 0,-0.321571 0.898399,-1.024194 1.945252,-1.521342 0.451266,-0.214306 0.704644,-0.285771 1.023515,-0.288688 0.381574,-0.0037 0.446643,0.02169 0.653289,0.252831 0.278578,0.311588 0.29464,0.605941 0.05265,0.965012 -0.319464,0.474031 -1.443774,0.88125 -2.729021,0.988434 -0.555705,0.04635 -0.562222,-0.116734 -0.778046,-0.116734 z m 6.770832,-0.80731 c 0,0.6806 -0.0896,-0.889347 1.440257,-1.614049 1.125433,-0.533123 1.839494,-0.547126 2.235381,-0.04384 0.295354,0.37548 0.144896,0.923587 -0.344189,1.253863 -0.136399,0.09211 -0.460229,0.224939 -0.71962,0.295179 -0.596317,0.161467 -2.611829,-0.167113 -2.611829,0.108842 z m 5.881584,-0.793311 c 0,-0.592215 -0.38483,-0.646545 0.427439,-1.139237 0.735718,-0.446262 2.061287,-1.023188 2.681301,-1.166977 0.451136,-0.104626 0.532053,-0.104193 0.760215,0.0041 0.32178,0.152698 0.682321,0.698697 0.682321,1.033319 0,0.536163 -0.796432,0.92652 -2.362683,1.158023 -1.289696,0.19063 -2.188593,0.355581 -2.188593,0.110791 z M 29.030939,95.139403 c -0.23487,0.06711 -0.169246,-0.24558 0.02079,-0.435622 0.35586,-0.355859 2.125787,-1.102431 2.613573,-1.102431 0.124271,0 0.326015,0.05175 0.448325,0.114994 0.40454,0.209195 0.429233,0.577563 0.06326,0.943541 -0.314921,0.314913 -1.047714,0.502601 -2.222351,0.569206 -0.678415,0.03848 -0.766457,-0.134585 -0.92359,-0.08969 z m 6.875442,-0.852845 c 0,0.217361 -0.05108,-0.317645 0.355786,-0.60983 0.655642,-0.470849 1.211592,-0.548887 1.373816,-0.192835 0.178485,0.391733 -0.330362,0.759079 -1.197675,0.864613 -0.336252,0.04092 -0.531927,-0.177166 -0.531927,-0.06195 z m -7.140944,-1.139947 c -0.806522,-0.28899 -1.234729,-0.809626 -1.224464,-1.488744 0.0136,-0.899608 0.831329,-1.711886 2.04092,-2.027313 0.976151,-0.254559 4.489116,-0.653444 8.629108,-0.979815 0.605247,-0.04771 2.122438,-0.17552 3.371538,-0.284023 1.2491,-0.108495 2.363304,-0.1861 2.476006,-0.172456 0.129798,0.01573 -0.558618,0.280755 -1.878075,0.723071 -2.79132,0.935727 -4.493005,1.559339 -7.585218,2.779775 -1.426649,0.563066 -2.947623,1.13706 -3.379944,1.275542 -1.007429,0.322706 -1.864857,0.383592 -2.449871,0.173963 z m 26.141491,-1.61583 c -0.281437,-0.222937 -0.275285,-0.439706 0.0297,-1.046346 0.664465,-1.321688 1.388599,-2.184831 2.394459,-2.854108 1.393558,-0.927243 2.771716,-1.409497 4.353898,-1.523543 1.88446,-0.135844 2.909805,-0.16637 2.909805,-0.08665 0,0.04246 -0.164429,0.202766 -0.365397,0.356215 -0.200969,0.153449 -0.856828,0.755321 -1.457458,1.337497 -1.311942,1.271619 -1.995986,1.838885 -3.135738,2.600379 -1.254883,0.838412 -2.284931,1.188708 -3.926773,1.335397 -0.528393,0.04721 -0.607689,0.03546 -0.802489,-0.118838 z m -14.66439,0.384479 c -0.428215,0.214108 -0.400728,-0.632309 0.0823,-0.948802 0.695691,-0.455838 3.296074,-1.299479 4.022593,-1.305059 0.788225,-0.006 1.134375,0.250923 1.134375,0.84213 0,0.236127 -0.05723,0.346877 -0.297151,0.575039 -0.447386,0.425466 -1.418386,0.674975 -3.38588,0.870021 -1.040521,0.10316 -1.260432,-0.181232 -1.556235,-0.03333 z M 50.62979,89.204057 c -0.12711,-0.331232 0.782899,-1.303416 1.571488,-1.678855 0.562874,-0.267973 2.258992,-0.735105 2.528795,-0.696458 0.379413,0.05436 0.155655,0.326628 -0.903938,1.099936 -1.178909,0.860385 -1.567799,1.085679 -2.195509,1.271922 -0.550035,0.163195 -0.939028,0.164539 -1.000836,0.0033 z m 17.809543,-3.718218 c -0.296597,-0.240164 -0.241912,-0.595656 0.202226,-1.31456 1.139204,-1.843979 2.283228,-2.820482 4.206568,-3.590607 1.40065,-0.560827 2.720491,-0.714599 3.596848,-0.419057 0.587551,0.198142 0.634479,0.332702 0.337413,0.96752 -0.519615,1.110388 -1.551157,2.237248 -2.843075,3.105766 -1.492286,1.00323 -2.774587,1.392512 -4.599972,1.396466 -0.586317,0.0012 -0.751764,-0.02549 -0.900008,-0.145528 z m -4.505321,-3.253693 c -0.519991,-0.391929 0.370602,-1.700517 1.423459,-2.091552 0.924681,-0.343442 2.522778,-0.579181 2.734584,-0.403392 0.29707,0.246536 0.154409,0.434139 -1.005007,1.321611 -0.617918,0.472978 -1.281133,0.941021 -1.473809,1.040088 -0.443154,0.227847 -1.447936,0.30758 -1.679227,0.133245 z m 30.671676,0.274282 c -1.108098,-0.332971 -1.228487,-0.247781 -1.370805,-0.423556 -0.128502,-0.158694 -0.134499,-0.206304 -0.044,-0.349299 0.137273,-0.216904 2.646256,-1.498642 3.946822,-2.01626 1.176886,-0.468398 2.870985,-0.91415 5.660085,-1.489275 1.0808,-0.222864 2.24283,-0.496927 2.58229,-0.609025 1.145,-0.378114 2.09615,-1.125283 3.45376,-2.713094 0.84379,-0.986849 1.05311,-1.146233 1.42932,-1.08835 0.0854,0.01315 0.22375,0.02969 0.32582,0.05606 0.14584,0.03768 0.2387,0.109864 0.24367,0.220264 0.001,0.0328 0.13296,0.237677 -0.59343,1.582763 -0.56317,1.042819 -1.06787,1.542669 -1.74333,2.187997 -1.9268,1.84085 -4.59804,2.935998 -10.468883,4.292012 -1.879217,0.50744 -2.110213,0.743735 -3.421319,0.349762 z m -23.309976,-4.61769 c -0.243137,-0.17199 -0.223113,-0.398988 0.09719,-1.101859 0.932512,-2.046263 2.453894,-3.275792 5.544122,-4.480583 0.586546,-0.228681 1.193251,-0.439567 1.34824,-0.46864 0.59385,-0.111407 1.04481,0.399242 0.821877,0.930646 -0.0574,0.136807 -0.418514,0.531718 -0.802478,0.877574 -0.383968,0.345856 -1.123232,1.030538 -1.642814,1.521509 -1.642226,1.551799 -2.601944,2.179353 -3.908963,2.556066 -0.975706,0.281229 -1.249386,0.31227 -1.457176,0.165287 z m 7.943744,-0.794598 c -0.12311,-0.320811 0.849663,-1.64236 1.682556,-2.285821 0.914323,-0.706368 1.371439,-0.965894 1.701269,-0.965894 0.52301,0 0.776719,0.522593 0.476303,0.98109 -0.174584,0.266449 -1.40582,1.345593 -1.899701,1.665044 -0.466344,0.301641 -1.494042,0.733806 -1.744993,0.733806 -0.09142,0 -0.188371,-0.0577 -0.215434,-0.128225 z M 56.636199,76.696566 c -0.315374,-0.08242 -0.06763,-0.4796 0.785538,-1.259357 0.995518,-0.909874 1.87667,-1.55465 3.007512,-2.200729 2.164897,-1.236853 3.409523,-1.726301 4.833661,-1.900824 0.913031,-0.11189 4.126675,-0.117163 4.126675,-0.0068 0,0.130553 -1.219222,0.884224 -2.318799,1.433385 -0.562012,0.280686 -1.775377,0.869781 -2.696365,1.309099 -3.558054,1.697233 -4.684717,2.134166 -6.392187,2.478976 -0.998549,0.201642 -1.094197,0.212034 -1.346035,0.146227 z m 49.679961,-3.755477 c 0.39174,-0.06346 0.10592,-0.256123 -0.63151,-0.396272 -1.9168,-0.364311 -3.35065,-0.96647 -4.70958,-1.977816 -1.121529,-0.834626 -1.401829,-1.105888 -1.401829,-1.356598 0,-0.33026 0.38291,-0.46578 1.598099,-0.565599 1.23091,-0.101117 2.11849,-0.05213 3.70763,0.204629 2.61894,0.42313 3.72159,0.440956 5.08613,0.08222 1.79719,-0.472484 3.48395,-1.331835 5.1323,-2.614729 2.34804,-1.827472 4.00082,-3.514943 6.18134,-6.311097 2.20212,-2.823856 2.84893,-3.795135 3.08083,-3.870385 0.11791,-0.03826 0.0371,0.14322 0.19528,-0.0095 0.72863,-0.14303 -3.309,5.126059 -3.71879,5.758842 -2.73905,4.144436 -4.52167,6.22975 -6.82412,7.982877 -2.26274,1.72289 -4.80812,2.890902 -7.13231,3.01416 -0.13734,0.0077 -0.42601,0.06438 -0.56347,0.05927 z M 90.851314,70.072667 c -0.274782,-0.274783 -0.08732,-0.546252 1.125622,-1.630138 2.116302,-1.891115 3.124601,-2.59846 5.230655,-3.669396 3.179649,-1.616871 4.158989,-1.861281 8.745439,-2.182564 1.50013,-0.105084 1.67266,-0.0753 1.6219,0.279985 -0.0257,0.179491 -0.24346,0.305429 -1.16783,0.675264 -0.55764,0.223108 -1.04547,0.502299 -3.68973,2.111678 -1.16555,0.709403 -4.438039,2.3862 -5.738035,2.940132 -0.453934,0.19342 -1.177577,0.464489 -1.608096,0.602371 -1.004525,0.321722 -3.848299,1.02684 -4.1413,1.02684 -0.123445,0 -0.293826,-0.06937 -0.378625,-0.154172 z m -7.080475,-0.304186 c -0.27629,-0.223729 -0.155537,-0.478537 0.643567,-1.358039 1.56581,-1.723344 2.692383,-2.466309 4.401368,-2.902653 0.725804,-0.185316 1.707756,-0.204384 2.026884,-0.03938 0.25107,0.12983 0.320036,0.261842 0.320036,0.612579 0,0.201373 -0.112229,0.352049 -0.653845,0.877857 -1.590907,1.544462 -2.950896,2.236602 -5.419508,2.758158 -1.105675,0.233611 -1.094111,0.233153 -1.318502,0.05145 z m 7.627663,-6.335913 c 0,-0.14155 0.179777,-0.352794 0.687778,-0.808159 0.874973,-0.784311 1.272776,-1.05583 2.16861,-1.480194 1.304409,-0.617908 2.611747,-0.962953 4.190221,-1.105932 0.67585,-0.06122 0.94317,-0.0053 1.01208,0.211812 0.0812,0.255712 -0.13963,0.423318 -0.92906,0.705268 -0.3979,0.142115 -1.480652,0.645671 -2.406113,1.119004 -0.925466,0.473342 -1.925456,0.945448 -2.222216,1.049126 -0.724652,0.253181 -1.8073,0.500726 -2.189929,0.500726 -0.277617,0 -0.311371,-0.02079 -0.311371,-0.191651 z m 15.327638,-3.471757 c -0.76426,-0.204921 -0.97933,-0.346569 -1.00592,-0.662515 -0.0214,-0.253571 0.0268,-0.32645 0.55022,-0.833842 1.00011,-0.969383 1.93008,-1.299367 3.67844,-1.305236 0.86449,-0.0029 1.25051,0.03629 2.08299,0.211472 1.01826,0.214281 1.29695,0.34194 1.29695,0.594093 0,0.200866 -0.19769,0.334455 -1.10044,0.743593 -1.39182,0.630787 -2.44681,1.044405 -3.09998,1.215374 -0.73985,0.193647 -1.75957,0.209384 -2.40226,0.03706 z"
         id="path1044"
         sodipodi:nodetypes="ssssssssssssscsssscssssssccssssssssssssssssssssssssscsscsssssscsssssssssssssssssssssssssscssssssssssssssssssssssssssssssssscssssscsssssscssssssscsssssssssccssssscssssssssssssssssssssscscsssssssssssssssccsccssscsssssssssssssssssssssssssssssssssssss" />
      <path
         style="fill:#facd0b;stroke-width:0.0786032"
         d="m 61.182132,104.26808 c -0.221629,-0.0444 -0.421112,-0.37579 -0.420977,-0.58608 1.6e-4,-0.28452 0.388878,-1.77311 0.603041,-2.30946 0.361493,-0.90532 0.818891,-1.580631 1.672042,-2.468701 0.788679,-0.82094 1.835704,-1.560972 2.421362,-1.858317 0.282718,-0.143539 0.412438,-0.17739 0.66813,-0.113221 1.41922,0.356172 2.044539,0.402947 5.914895,0.329451 3.28194,-0.06232 3.079733,0.02263 5.66372,-2.379022 0.321779,-0.299072 0.599139,-0.528986 0.616361,-0.510923 0.0172,0.01806 -0.03006,0.393943 -0.105063,0.835296 -0.075,0.44134 -0.106734,0.78412 -0.07051,0.761735 0.09753,-0.06027 0.08502,-0.01573 -0.135749,0.483488 -0.303181,0.685531 -0.820529,1.442823 -1.419354,2.077603 -1.505026,1.595401 -3.303704,2.278341 -6.005625,2.280291 -1.69591,0.001 -2.925001,0.27737 -4.360417,0.97971 -1.052032,0.51475 -2.102042,1.20583 -2.803288,1.84504 -0.321077,0.29267 -0.568279,0.46039 -0.638743,0.43335 -0.06322,-0.0243 -0.326129,-0.005 -0.576657,0.0703 -0.33934,0.10251 -0.749452,0.18436 -1.023168,0.12946 z"
         id="path1046"
         sodipodi:nodetypes="sssssssssssssssssss" />
      <path
         style="display:inline;fill:#facd0b;stroke-width:0.0786032"
         d="m 38.983776,107.53198 c -0.833,-0.10148 -0.982,-0.4123 -0.5802,-1.21041 0.18803,-0.3735 0.25706,-0.43982 0.53057,-0.50972 1.24103,-0.31717 3.2825,-1.30818 6.65323,-3.22972 1.28152,-0.73056 2.37579,-1.32828 2.43172,-1.32828 0.15672,0 1.52792,-0.65566 3.17716,-1.519221 0.82141,-0.43009 2.28933,-1.19419 3.26204,-1.69799 0.97272,-0.5038 1.87469,-0.982593 2.00439,-1.063983 l 0.23581,-0.14797 -0.15721,0.16115 c -0.32484,0.332993 -2.47601,1.988193 -2.47601,1.905143 0,-0.12535 -0.23108,0.0254 -4.04806,2.640981 -8.64645,5.92495 -9.19609,6.22385 -11.03344,6.00002 z m 14.76709,-8.351491 c 0,-0.0163 0.0619,-0.0782 0.13756,-0.13755 0.12467,-0.0978 0.12745,-0.095 0.0297,0.0297 -0.10269,0.13093 -0.16723,0.17258 -0.16723,0.10788 z"
         id="path1046-6-7"
         sodipodi:nodetypes="sssssssscsssscsssc" />
      <path
         style="color:#000000;font-style:normal;font-variant:normal;font-weight:normal;font-stretch:normal;font-size:medium;line-height:normal;font-family:sans-serif;font-variant-ligatures:normal;font-variant-position:normal;font-variant-caps:normal;font-variant-numeric:normal;font-variant-alternates:normal;font-variant-east-asian:normal;font-feature-settings:normal;font-variation-settings:normal;text-indent:0;text-align:start;text-decoration:none;text-decoration-line:none;text-decoration-style:solid;text-decoration-color:#000000;letter-spacing:normal;word-spacing:normal;text-transform:none;writing-mode:lr-tb;direction:ltr;text-orientation:mixed;dominant-baseline:auto;baseline-shift:baseline;text-anchor:start;white-space:normal;shape-padding:0;shape-margin:0;inline-size:0;clip-rule:nonzero;display:inline;overflow:visible;visibility:visible;isolation:auto;mix-blend-mode:normal;color-interpolation:sRGB;color-interpolation-filters:linearRGB;solid-color:#000000;solid-opacity:1;vector-effect:none;fill:#000600;fill-opacity:1;fill-rule:nonzero;stroke:none;stroke-width:5.292;stroke-linecap:round;stroke-linejoin:round;stroke-miterlimit:4;stroke-dasharray:none;stroke-dashoffset:0;stroke-opacity:1;paint-order:markers stroke fill;color-rendering:auto;image-rendering:auto;shape-rendering:auto;text-rendering:auto;enable-background:accumulate;stop-color:#000000"
         d="m 30.059488,87.246065 c 6.7863,-2.649357 14.740463,-0.819892 18.181935,-1.637727 10.113825,-2.403406 16.091357,-8.779066 23.161047,-14.741068 0,0 -5.921055,0.100662 -7.305527,0.254821 -4.137953,0.46089 -5.627871,3.01299 -9.028602,5.315365 -1.448338,0.972899 -1.889632,1.118509 -0.619304,-0.501338 1.672702,-2.132979 4.328512,-4.760191 6.220427,-5.459928 4.537006,-1.678024 6.701111,-0.423614 11.591637,-0.290202 18.744516,-12.137687 38.860239,-21.944557 50.349159,-16.342969 1.80778,0.800267 1.00594,0.982438 -1.25512,0.565445 -14.07946,-2.596577 -38.626543,9.472994 -52.712473,20.897142 -5.486459,5.238583 -13.794077,11.023198 -20.528588,11.750089 -2.855709,0.308194 -8.527397,-1.76124 -18.288976,0.448766 -2.002228,0.418282 -1.905246,0.311392 0.234385,-0.258415 z m 52.97301,-4.240276 c -1.904623,-2.175899 -0.361303,-6.735502 1.62399,-8.307099 4.208121,-3.223712 6.605355,-1.800395 12.063425,-4.86842 -2.760368,2.239066 -9.5777,4.230029 -11.649003,7.021033 -1.02948,1.523403 -1.325824,4.006618 -0.969511,5.624635 0.197351,0.896193 -0.20022,1.421175 -1.068901,0.529851 z m 34.830122,-3.254423 c 1.92739,0.322753 2.43322,0.466806 2.31739,0.659949 -0.0429,0.07123 -0.39526,0.370588 -0.78334,0.665121 -0.38807,0.294542 -0.9427,0.759818 -1.2325,1.033914 -0.2898,0.274106 -0.52742,0.460522 -0.52802,0.414281 -9.5e-4,-0.122485 0.9116,-1.373942 1.15249,-1.579333 0.33465,-0.285343 0.50198,-0.344387 -0.0823,-0.336603 -3.34879,0.343717 -6.58545,-2.195995 -9.07961,-3.415874 -2.00444,4.511324 -12.324377,7.06834 -17.250276,8.251328 -0.162621,4.515495 -5.369937,6.41508 -10.259501,6.769544 -0.629097,0.0085 -0.436963,-0.207457 0.458975,-0.515585 2.621778,-0.637013 5.565553,-2.981496 7.132649,-5.784973 l -5.733505,1.137464 c -5.408734,8.026963 -2.751113,12.0086 -11.160383,15.080871 -2.638903,0.9641 -5.517548,0.83982 -7.618524,1.91974 -5.374069,3.19369 -4.629026,1.1999 0.223893,-2.04658 3.03337,-1.61552 5.797852,-0.99687 8.748977,-2.116991 4.158107,-1.57936 4.309916,-8.018758 6.060428,-11.955047 -25.298083,5.85415 -25.634072,13.959688 -40.702534,21.056328 -1.82354,0.96303 -2.036676,1.06074 -1.931523,0.88542 l 9e-6,1e-5 c 0.04218,-0.0706 1.570323,-1.14107 3.395646,-2.37906 7.29845,-4.72171 14.52945,-10.966768 21.120616,-15.181388 16.247789,-10.389931 46.974543,-7.32852 48.932363,-18.8413 0.0656,0.350085 -1.08936,3.18933 -1.20467,3.298305 2.88003,1.556585 4.97438,2.463619 8.02326,2.980439 z M 99.071971,71.700927 c 14.517479,5.40662 20.713249,-8.902485 25.481429,-15.704924 0.33181,-0.39679 0.3725,-0.415317 0.38026,-0.173117 -5.62983,18.09751 -17.96148,20.476101 -25.861689,15.878041 z"
         id="path1094" />
    </g>
    <g
       aria-label="SAN DIEGO          KILLIFISH AND LIVEBEARERS GROUP"
       transform="rotate(21.842554,195.87843,616.34409)"
       id="text911"
       style="font-style:normal;font-variant:normal;font-weight:bold;font-stretch:condensed;font-size:10.5833px;font-family:'IBM Plex Sans Condensed';-inkscape-font-specification:'IBM Plex Sans Condensed, Bold Condensed';font-variant-ligatures:normal;font-variant-caps:normal;font-variant-numeric:normal;font-variant-east-asian:normal;white-space:pre;opacity:0.999;fill:#000000;fill-opacity:1;stroke:none">
      <path
         d="m -79.56907,157.74179 c -0.102049,1.67964 0.697783,2.65068 2.261228,2.74567 1.246531,0.0757 1.852277,-0.47062 2.235993,-1.89989 l 0.178406,-0.66774 c 0.137087,-0.51121 0.393533,-0.71829 0.879468,-0.68876 0.559883,0.034 0.78488,0.34456 0.744446,1.01008 -0.03723,0.6127 -0.275458,1.04355 -0.752166,1.38568 l 0.912824,1.03092 c 0.720023,-0.5076 1.094354,-1.25886 1.158536,-2.31524 0.09884,-1.62683 -0.619691,-2.53992 -2.045807,-2.62656 -1.225403,-0.0744 -1.95056,0.51766 -2.286244,1.85442 l -0.167842,0.66839 c -0.138371,0.53233 -0.427792,0.75861 -0.934856,0.72781 -0.623265,-0.0379 -0.907794,-0.41565 -0.865434,-1.11287 0.04043,-0.66552 0.360957,-1.2292 0.914179,-1.6091 l -0.912824,-1.03091 c -0.820232,0.58633 -1.251875,1.40833 -1.319907,2.5281 z"
         style="font-style:normal;font-variant:normal;font-weight:bold;font-stretch:condensed;font-size:10.5833px;font-family:'IBM Plex Sans Condensed';-inkscape-font-specification:'IBM Plex Sans Condensed, Bold Condensed';font-variant-ligatures:normal;font-variant-caps:normal;font-variant-numeric:normal;font-variant-east-asian:normal"
         id="path1334" />
      <path
         d="m -80.800537,166.97552 7.650187,-0.66 0.364427,-1.89138 -6.857258,-3.45528 -0.274322,1.42372 1.690958,0.78927 -0.428503,2.22392 -1.863159,0.10446 z m 3.410669,-1.70321 0.288338,-1.49647 1.59104,0.74846 1.213399,0.47091 -0.03204,0.16628 -1.301502,-0.0137 z"
         style="font-style:normal;font-variant:normal;font-weight:bold;font-stretch:condensed;font-size:10.5833px;font-family:'IBM Plex Sans Condensed';-inkscape-font-specification:'IBM Plex Sans Condensed, Bold Condensed';font-variant-ligatures:normal;font-variant-caps:normal;font-variant-numeric:normal;font-variant-east-asian:normal"
         id="path1336" />
      <path
         d="m -82.313541,171.50015 -0.538167,1.56082 6.98367,2.40796 0.462272,-1.34071 -3.681935,-1.26952 -1.198214,-0.32359 0.0552,-0.16008 1.262374,-0.0573 4.34913,-0.47071 0.538167,-1.56082 -6.98367,-2.40795 -0.462272,1.3407 3.681935,1.26953 1.198213,0.32358 -0.0552,0.16008 -1.262375,0.0573 z"
         style="font-style:normal;font-variant:normal;font-weight:bold;font-stretch:condensed;font-size:10.5833px;font-family:'IBM Plex Sans Condensed';-inkscape-font-specification:'IBM Plex Sans Condensed, Bold Condensed';font-variant-ligatures:normal;font-variant-caps:normal;font-variant-numeric:normal;font-variant-east-asian:normal"
         id="path1338" />
      <path
         d="m -84.393305,176.41738 -1.292698,2.24769 c -0.896974,1.55962 -0.532185,3.02692 1.761375,4.346 2.293561,1.31908 3.745271,0.89649 4.642245,-0.66313 l 1.292698,-2.24769 z m 0.392267,1.97146 4.11006,2.36379 -0.538185,0.93577 c -0.416829,0.72477 -1.051275,0.87265 -1.922828,0.3714 l -1.541273,-0.88642 c -0.871552,-0.50125 -1.062788,-1.124 -0.645959,-1.84877 z"
         style="font-style:normal;font-variant:normal;font-weight:bold;font-stretch:condensed;font-size:10.5833px;font-family:'IBM Plex Sans Condensed';-inkscape-font-specification:'IBM Plex Sans Condensed, Bold Condensed';font-variant-ligatures:normal;font-variant-caps:normal;font-variant-numeric:normal;font-variant-east-asian:normal"
         id="path1340" />
      <path
         d="m -89.63175,184.53797 0.962487,0.70981 0.515081,-0.69845 4.0203,2.96486 -0.515081,0.69844 0.962487,0.70981 1.928414,-2.6149 -0.962487,-0.7098 -0.515081,0.69844 -4.0203,-2.96486 0.515081,-0.69844 -0.962487,-0.70981 z"
         style="font-style:normal;font-variant:normal;font-weight:bold;font-stretch:condensed;font-size:10.5833px;font-family:'IBM Plex Sans Condensed';-inkscape-font-specification:'IBM Plex Sans Condensed, Bold Condensed';font-variant-ligatures:normal;font-variant-caps:normal;font-variant-numeric:normal;font-variant-east-asian:normal"
         id="path1342" />
      <path
         d="m -93.451541,188.86042 0.977297,0.89162 2.061429,-2.25951 1.29785,1.18407 -1.747578,1.91551 0.969478,0.88448 1.747578,-1.9155 1.235303,1.12701 -2.061428,2.25951 0.977296,0.89162 3.081443,-3.37753 -5.457225,-4.97882 z"
         style="font-style:normal;font-variant:normal;font-weight:bold;font-stretch:condensed;font-size:10.5833px;font-family:'IBM Plex Sans Condensed';-inkscape-font-specification:'IBM Plex Sans Condensed, Bold Condensed';font-variant-ligatures:normal;font-variant-caps:normal;font-variant-numeric:normal;font-variant-east-asian:normal"
         id="path1344" />
      <path
         d="m -97.557047,192.45046 -0.971543,0.81792 2.624165,3.11703 2.040239,-1.71763 -0.817922,-0.97154 -0.931061,0.78384 -0.279456,-0.33194 c -0.490753,-0.58293 -0.313848,-1.24374 0.269077,-1.73449 0.639599,-0.53847 1.36348,-0.48383 2.011002,0.2853 l 1.240514,1.47351 c 0.647521,0.76914 0.584793,1.49984 -0.02242,2.01104 -0.61531,0.51801 -1.22799,0.48044 -1.804411,0.10798 l -0.49058,1.33992 c 1.094921,0.54466 2.141785,0.42422 3.145712,-0.42097 1.352063,-1.13827 1.561042,-2.69765 -0.238385,-4.83505 -1.799428,-2.13739 -3.387386,-2.10096 -4.456083,-1.20124 -0.744849,0.62707 -0.850618,1.42167 -0.439547,2.05785 l -0.129539,0.10905 z"
         style="font-style:normal;font-variant:normal;font-weight:bold;font-stretch:condensed;font-size:10.5833px;font-family:'IBM Plex Sans Condensed';-inkscape-font-specification:'IBM Plex Sans Condensed, Bold Condensed';font-variant-ligatures:normal;font-variant-caps:normal;font-variant-numeric:normal;font-variant-east-asian:normal"
         id="path1346" />
      <path
         d="m -101.97391,195.37351 c -1.49962,0.93535 -1.9273,2.44943 -0.46545,4.79314 1.46184,2.34371 3.009702,2.62559 4.50932,1.69023 1.499618,-0.93535 1.927297,-2.44943 0.465455,-4.79314 -1.461843,-2.34372 -3.009705,-2.62559 -4.509325,-1.69023 z m 0.70572,1.13144 c 0.7094,-0.44247 1.396911,-0.2601 1.928999,0.59297 l 1.019369,1.63431 c 0.532088,0.85308 0.393465,1.55073 -0.315935,1.9932 -0.7094,0.44248 -1.396913,0.26011 -1.929003,-0.59296 l -1.01937,-1.63432 c -0.53209,-0.85307 -0.39346,-1.55072 0.31594,-1.9932 z"
         style="font-style:normal;font-variant:normal;font-weight:bold;font-stretch:condensed;font-size:10.5833px;font-family:'IBM Plex Sans Condensed';-inkscape-font-specification:'IBM Plex Sans Condensed, Bold Condensed';font-variant-ligatures:normal;font-variant-caps:normal;font-variant-numeric:normal;font-variant-east-asian:normal"
         id="path1348" />
      <path
         d="m -131.18651,202.55647 -1.77556,-0.0929 2.1952,4.42815 -2.39094,2.95886 1.71215,0.0896 1.73144,-2.3045 0.79063,-1.13499 0.1691,0.009 -0.1248,1.16982 -0.12497,2.38856 1.51135,0.0791 0.38598,-7.37706 -1.51135,-0.0791 -0.11004,2.1032 -0.91691,1.11778 z"
         style="font-style:normal;font-variant:normal;font-weight:bold;font-stretch:condensed;font-size:10.5833px;font-family:'IBM Plex Sans Condensed';-inkscape-font-specification:'IBM Plex Sans Condensed, Bold Condensed';font-variant-ligatures:normal;font-variant-caps:normal;font-variant-numeric:normal;font-variant-east-asian:normal"
         id="path1350" />
      <path
         d="m -136.71938,201.77688 -0.19695,1.17958 0.85599,0.14292 -0.82264,4.92711 -0.85598,-0.14291 -0.19694,1.17958 3.20471,0.53506 0.19695,-1.17958 -0.85599,-0.14292 0.82264,-4.92711 0.85598,0.14291 0.19694,-1.17958 z"
         style="font-style:normal;font-variant:normal;font-weight:bold;font-stretch:condensed;font-size:10.5833px;font-family:'IBM Plex Sans Condensed';-inkscape-font-specification:'IBM Plex Sans Condensed, Bold Condensed';font-variant-ligatures:normal;font-variant-caps:normal;font-variant-numeric:normal;font-variant-east-asian:normal"
         id="path1352" />
      <path
         d="m -141.77562,200.48615 -0.34395,1.27741 2.42198,0.65213 -1.57666,5.85568 1.46137,0.39348 1.92061,-7.1331 z"
         style="font-style:normal;font-variant:normal;font-weight:bold;font-stretch:condensed;font-size:10.5833px;font-family:'IBM Plex Sans Condensed';-inkscape-font-specification:'IBM Plex Sans Condensed, Bold Condensed';font-variant-ligatures:normal;font-variant-caps:normal;font-variant-numeric:normal;font-variant-east-asian:normal"
         id="path1354" />
      <path
         d="m -146.5277,198.68184 -0.47843,1.23337 2.33847,0.9071 -2.19311,5.65378 1.41097,0.54732 2.67155,-6.88714 z"
         style="font-style:normal;font-variant:normal;font-weight:bold;font-stretch:condensed;font-size:10.5833px;font-family:'IBM Plex Sans Condensed';-inkscape-font-specification:'IBM Plex Sans Condensed, Bold Condensed';font-variant-ligatures:normal;font-variant-caps:normal;font-variant-numeric:normal;font-variant-east-asian:normal"
         id="path1356" />
      <path
         d="m -150.16343,196.85895 -0.53905,1.06754 0.77467,0.39117 -2.25161,4.45909 -0.77467,-0.39117 -0.53905,1.06753 2.9003,1.4645 0.53905,-1.06754 -0.77468,-0.39116 2.25161,-4.45909 0.77467,0.39117 0.53905,-1.06754 z"
         style="font-style:normal;font-variant:normal;font-weight:bold;font-stretch:condensed;font-size:10.5833px;font-family:'IBM Plex Sans Condensed';-inkscape-font-specification:'IBM Plex Sans Condensed, Bold Condensed';font-variant-ligatures:normal;font-variant-caps:normal;font-variant-numeric:normal;font-variant-east-asian:normal"
         id="path1358" />
      <path
         d="m -152.48966,195.4676 -1.6621,2.59273 -2.09378,-1.34224 -0.70825,1.1048 2.09379,1.34224 -0.90245,1.40774 -2.46799,-1.58213 -0.71396,1.11371 3.74209,2.3989 3.98674,-6.21898 z"
         style="font-style:normal;font-variant:normal;font-weight:bold;font-stretch:condensed;font-size:10.5833px;font-family:'IBM Plex Sans Condensed';-inkscape-font-specification:'IBM Plex Sans Condensed, Bold Condensed';font-variant-ligatures:normal;font-variant-caps:normal;font-variant-numeric:normal;font-variant-east-asian:normal"
         id="path1360" />
      <path
         d="m -158.2119,191.306 -0.74463,0.9358 0.67908,0.54036 -3.11033,3.90884 -0.67908,-0.54035 -0.74463,0.9358 2.5424,2.02303 0.74464,-0.9358 -0.67908,-0.54035 3.11032,-3.90885 0.67908,0.54035 0.74464,-0.9358 z"
         style="font-style:normal;font-variant:normal;font-weight:bold;font-stretch:condensed;font-size:10.5833px;font-family:'IBM Plex Sans Condensed';-inkscape-font-specification:'IBM Plex Sans Condensed, Bold Condensed';font-variant-ligatures:normal;font-variant-caps:normal;font-variant-numeric:normal;font-variant-east-asian:normal"
         id="path1362" />
      <path
         d="m -160.58072,188.93048 c -1.19986,-1.17981 -2.45743,-1.21412 -3.55562,-0.0973 -0.87559,0.89046 -0.86123,1.70608 -0.0352,2.93394 l 0.3865,0.573 c 0.29557,0.43905 0.28338,0.76844 -0.058,1.11557 -0.39327,0.39995 -0.77524,0.36575 -1.25065,-0.10172 -0.43769,-0.43037 -0.60623,-0.89295 -0.55128,-1.47715 l -1.37692,0.0116 c -0.0899,0.87636 0.23095,1.65197 0.98558,2.394 1.16213,1.14271 2.3226,1.20029 3.32433,0.18154 0.86074,-0.87537 0.89028,-1.8111 0.10244,-2.94199 l -0.39392,-0.56545 c -0.31066,-0.4539 -0.2913,-0.82077 0.0649,-1.18299 0.4378,-0.44523 0.90956,-0.41179 1.40761,0.0779 0.47542,0.46747 0.69012,1.07933 0.61341,1.74604 l 1.37692,-0.0116 c 0.0963,-1.00364 -0.24025,-1.86892 -1.04016,-2.65547 z"
         style="font-style:normal;font-variant:normal;font-weight:bold;font-stretch:condensed;font-size:10.5833px;font-family:'IBM Plex Sans Condensed';-inkscape-font-specification:'IBM Plex Sans Condensed, Bold Condensed';font-variant-ligatures:normal;font-variant-caps:normal;font-variant-numeric:normal;font-variant-east-asian:normal"
         id="path1364" />
      <path
         d="m -165.72217,183.22784 -0.9287,-1.19496 -5.83274,4.53311 0.92871,1.19496 2.36484,-1.83792 1.50671,1.93867 -2.36485,1.83792 0.92871,1.19496 5.83273,-4.53311 -0.9287,-1.19496 -2.4317,1.88988 -1.50671,-1.93867 z"
         style="font-style:normal;font-variant:normal;font-weight:bold;font-stretch:condensed;font-size:10.5833px;font-family:'IBM Plex Sans Condensed';-inkscape-font-specification:'IBM Plex Sans Condensed, Bold Condensed';font-variant-ligatures:normal;font-variant-caps:normal;font-variant-numeric:normal;font-variant-east-asian:normal"
         id="path1366" />
      <path
         d="m -171.17638,173.91572 -5.62066,5.23156 0.87774,1.71454 7.53047,-1.50101 -0.66072,-1.29062 -1.81829,0.41961 -1.03207,-2.016 1.40354,-1.22978 z m -1.6381,3.44241 0.69447,1.35657 -1.71444,0.39022 -1.24599,0.3763 -0.0772,-0.15073 1.03379,-0.79081 z"
         style="font-style:normal;font-variant:normal;font-weight:bold;font-stretch:condensed;font-size:10.5833px;font-family:'IBM Plex Sans Condensed';-inkscape-font-specification:'IBM Plex Sans Condensed, Bold Condensed';font-variant-ligatures:normal;font-variant-caps:normal;font-variant-numeric:normal;font-variant-east-asian:normal"
         id="path1368" />
      <path
         d="m -172.77163,169.41961 -0.53749,-1.56106 -6.98471,2.40495 0.4617,1.34091 3.68248,-1.26794 1.14322,-0.48318 0.0551,0.16011 -0.95915,0.82274 -3.13611,3.0498 0.53749,1.56105 6.98471,-2.40494 -0.4617,-1.34091 -3.68248,1.26794 -1.14322,0.48318 -0.0551,-0.16011 0.95915,-0.82275 z"
         style="font-style:normal;font-variant:normal;font-weight:bold;font-stretch:condensed;font-size:10.5833px;font-family:'IBM Plex Sans Condensed';-inkscape-font-specification:'IBM Plex Sans Condensed, Bold Condensed';font-variant-ligatures:normal;font-variant-caps:normal;font-variant-numeric:normal;font-variant-east-asian:normal"
         id="path1370" />
      <path
         d="m -173.67218,166.45749 -0.48609,-2.54693 c -0.33729,-1.76727 -1.57082,-2.6416 -4.16973,-2.14558 -2.59892,0.49601 -3.42373,1.76318 -3.08644,3.53045 l 0.48609,2.54693 z m -1.58318,-1.23857 -4.65725,0.88886 -0.20237,-1.06036 c -0.15674,-0.82126 0.22773,-1.34716 1.21532,-1.53564 l 1.74647,-0.33332 c 0.98759,-0.18849 1.53872,0.15885 1.69546,0.9801 z"
         style="font-style:normal;font-variant:normal;font-weight:bold;font-stretch:condensed;font-size:10.5833px;font-family:'IBM Plex Sans Condensed';-inkscape-font-specification:'IBM Plex Sans Condensed, Bold Condensed';font-variant-ligatures:normal;font-variant-caps:normal;font-variant-numeric:normal;font-variant-east-asian:normal"
         id="path1372" />
      <path
         d="m -175.04493,153.62484 -1.32265,0.0259 0.0492,2.50776 -6.06306,0.11894 0.0297,1.51312 7.38572,-0.14489 z"
         style="font-style:normal;font-variant:normal;font-weight:bold;font-stretch:condensed;font-size:10.5833px;font-family:'IBM Plex Sans Condensed';-inkscape-font-specification:'IBM Plex Sans Condensed, Bold Condensed';font-variant-ligatures:normal;font-variant-caps:normal;font-variant-numeric:normal;font-variant-east-asian:normal"
         id="path1374" />
      <path
         d="m -174.7478,149.56849 -1.19246,-0.0909 -0.066,0.86532 -4.98087,-0.37969 0.066,-0.86532 -1.19246,-0.0909 -0.24695,3.23968 1.19245,0.0909 0.066,-0.86532 4.98087,0.37968 -0.066,0.86532 1.19245,0.0909 z"
         style="font-style:normal;font-variant:normal;font-weight:bold;font-stretch:condensed;font-size:10.5833px;font-family:'IBM Plex Sans Condensed';-inkscape-font-specification:'IBM Plex Sans Condensed, Bold Condensed';font-variant-ligatures:normal;font-variant-caps:normal;font-variant-numeric:normal;font-variant-east-asian:normal"
         id="path1376" />
      <path
         d="m -174.01577,145.07625 -6.86598,-3.45738 -0.28198,1.49768 4.19442,1.97436 1.4546,0.51081 -0.0313,0.1664 -1.54076,-0.0532 -4.62916,0.33456 -0.28982,1.53928 7.66102,-0.76525 z"
         style="font-style:normal;font-variant:normal;font-weight:bold;font-stretch:condensed;font-size:10.5833px;font-family:'IBM Plex Sans Condensed';-inkscape-font-specification:'IBM Plex Sans Condensed, Bold Condensed';font-variant-ligatures:normal;font-variant-caps:normal;font-variant-numeric:normal;font-variant-east-asian:normal"
         id="path1378" />
      <path
         d="m -171.94731,137.82386 -1.25829,-0.40841 -0.94425,2.90917 -1.67101,-0.54237 0.80048,-2.46625 -1.24822,-0.40514 -0.80048,2.46625 -1.59049,-0.51623 0.94425,-2.90917 -1.2583,-0.40841 -1.41146,4.34866 7.02631,2.28055 z"
         style="font-style:normal;font-variant:normal;font-weight:bold;font-stretch:condensed;font-size:10.5833px;font-family:'IBM Plex Sans Condensed';-inkscape-font-specification:'IBM Plex Sans Condensed, Bold Condensed';font-variant-ligatures:normal;font-variant-caps:normal;font-variant-numeric:normal;font-variant-east-asian:normal"
         id="path1380" />
      <path
         d="m -171.49264,136.66577 1.53019,-3.23335 c 0.45724,-0.96618 -0.11798,-1.95263 -1.17026,-2.45062 -1.08097,-0.51157 -1.8263,0.049 -2.12057,0.67077 l -0.15306,-0.0724 c 0.22432,-0.57294 0.2281,-1.27367 -0.90071,-1.80788 -1.03314,-0.48894 -1.9568,-0.2938 -2.45932,0.76804 l -1.40343,2.9655 z m -2.15549,-2.69442 0.70171,-1.48275 c 0.14487,-0.30612 0.40257,-0.43004 0.82348,-0.23085 l 0.47831,0.22636 c 0.42091,0.1992 0.48846,0.47705 0.34359,0.78317 l -0.70172,1.48275 z m -2.71678,-1.28572 0.59759,-1.26273 c 0.1494,-0.31568 0.40256,-0.43004 0.81391,-0.23537 l 0.44004,0.20825 c 0.41134,0.19467 0.48342,0.46295 0.33403,0.77863 l -0.59759,1.26273 z"
         style="font-style:normal;font-variant:normal;font-weight:bold;font-stretch:condensed;font-size:10.5833px;font-family:'IBM Plex Sans Condensed';-inkscape-font-specification:'IBM Plex Sans Condensed, Bold Condensed';font-variant-ligatures:normal;font-variant-caps:normal;font-variant-numeric:normal;font-variant-east-asian:normal"
         id="path1382" />
      <path
         d="m -166.2012,127.10302 -1.11404,-0.71345 -1.64951,2.57565 -1.47944,-0.94746 1.39837,-2.18352 -1.10513,-0.70775 -1.39837,2.18352 -1.40814,-0.90181 1.64951,-2.57565 -1.11404,-0.71346 -2.4657,3.85012 6.22079,3.98393 z"
         style="font-style:normal;font-variant:normal;font-weight:bold;font-stretch:condensed;font-size:10.5833px;font-family:'IBM Plex Sans Condensed';-inkscape-font-specification:'IBM Plex Sans Condensed, Bold Condensed';font-variant-ligatures:normal;font-variant-caps:normal;font-variant-numeric:normal;font-variant-east-asian:normal"
         id="path1384" />
      <path
         d="m -161.86611,121.79834 -7.00528,-3.14436 -1.23837,1.47531 4.3108,6.35436 0.93218,-1.11053 -1.09355,-1.51209 1.4561,-1.7347 1.67873,0.81497 z m -3.80846,-0.17078 -0.97981,1.16727 -1.02611,-1.42783 -0.83114,-1.00165 0.10887,-0.12969 1.13053,0.64498 z"
         style="font-style:normal;font-variant:normal;font-weight:bold;font-stretch:condensed;font-size:10.5833px;font-family:'IBM Plex Sans Condensed';-inkscape-font-specification:'IBM Plex Sans Condensed, Bold Condensed';font-variant-ligatures:normal;font-variant-caps:normal;font-variant-numeric:normal;font-variant-east-asian:normal"
         id="path1386" />
      <path
         d="m -161.94669,118.06151 0.74422,-0.67601 2.72466,1.29963 1.21426,-1.10297 -2.92685,-1.30185 c 0.3883,-0.75304 0.17507,-1.61739 -0.55075,-2.41644 -0.9393,-1.03408 -2.06903,-1.22319 -3.04826,-0.3337 l -2.36584,2.14901 4.96692,5.46806 1.12024,-1.01758 z m -0.8468,-0.93223 -1.35202,-1.48844 1.10458,-1.00335 c 0.29769,-0.2704 0.60667,-0.30801 0.94823,0.068 l 0.42696,0.47003 c 0.34156,0.37603 0.27452,0.67999 -0.0232,0.95039 z"
         style="font-style:normal;font-variant:normal;font-weight:bold;font-stretch:condensed;font-size:10.5833px;font-family:'IBM Plex Sans Condensed';-inkscape-font-specification:'IBM Plex Sans Condensed, Bold Condensed';font-variant-ligatures:normal;font-variant-caps:normal;font-variant-numeric:normal;font-variant-east-asian:normal"
         id="path1388" />
      <path
         d="m -152.58516,114.27075 -0.75757,-1.08452 -2.5074,1.75152 -1.00607,-1.44024 2.12565,-1.48485 -0.75151,-1.07584 -2.12565,1.48485 -0.95758,-1.37082 2.5074,-1.75152 -0.75758,-1.08452 -3.74808,2.61819 4.23031,6.05593 z"
         style="font-style:normal;font-variant:normal;font-weight:bold;font-stretch:condensed;font-size:10.5833px;font-family:'IBM Plex Sans Condensed';-inkscape-font-specification:'IBM Plex Sans Condensed, Bold Condensed';font-variant-ligatures:normal;font-variant-caps:normal;font-variant-numeric:normal;font-variant-east-asian:normal"
         id="path1390" />
      <path
         d="m -151.47854,110.4408 0.8911,-0.46561 2.30694,1.94702 1.45391,-0.75966 -2.50197,-2.00035 c 0.56627,-0.63022 0.5788,-1.52039 0.0789,-2.47716 -0.64695,-1.23817 -1.692,-1.7071 -2.86451,-1.09446 l -2.83278,1.48012 3.42096,6.54729 1.34134,-0.70086 z m -0.58323,-1.11623 -0.93121,-1.78221 1.32259,-0.69105 c 0.35645,-0.18625 0.66489,-0.14441 0.90014,0.30583 l 0.29406,0.56281 c 0.23525,0.45024 0.0934,0.72733 -0.26299,0.91357 z"
         style="font-style:normal;font-variant:normal;font-weight:bold;font-stretch:condensed;font-size:10.5833px;font-family:'IBM Plex Sans Condensed';-inkscape-font-specification:'IBM Plex Sans Condensed, Bold Condensed';font-variant-ligatures:normal;font-variant-caps:normal;font-variant-numeric:normal;font-variant-east-asian:normal"
         id="path1392" />
      <path
         d="m -143.68063,110.10191 c 1.57969,-0.57983 2.14866,-1.70185 1.60894,-3.17225 -0.43032,-1.17235 -1.17368,-1.50828 -2.6369,-1.28685 l -0.68326,0.10423 c -0.52329,0.0793 -0.8158,-0.0726 -0.98355,-0.5296 -0.19328,-0.52657 0.001,-0.85719 0.62694,-1.08693 0.57624,-0.21151 1.06645,-0.16597 1.57099,0.1336 l 0.57854,-1.24953 c -0.75367,-0.45616 -1.59199,-0.49793 -2.5855,-0.13326 -1.53002,0.5616 -2.07849,1.5859 -1.58618,2.92715 0.42303,1.15248 1.25618,1.57946 2.6154,1.35112 l 0.67961,-0.11417 c 0.54316,-0.0866 0.86649,0.0878 1.04153,0.56469 0.21516,0.58617 -0.0169,0.99828 -0.6726,1.23897 -0.62592,0.22974 -1.27081,0.16207 -1.84062,-0.19247 l -0.57854,1.24954 c 0.86597,0.51639 1.79207,0.58232 2.8452,0.19576 z"
         style="font-style:normal;font-variant:normal;font-weight:bold;font-stretch:condensed;font-size:10.5833px;font-family:'IBM Plex Sans Condensed';-inkscape-font-specification:'IBM Plex Sans Condensed, Bold Condensed';font-variant-ligatures:normal;font-variant-caps:normal;font-variant-numeric:normal;font-variant-east-asian:normal"
         id="path1394" />
      <path
         d="m -133.87236,107.48505 1.25153,-0.21576 -0.69224,-4.01534 -2.62822,0.4531 0.21577,1.25154 1.19938,-0.20678 0.0737,0.42761 c 0.12946,0.75092 -0.35677,1.23211 -1.10769,1.36156 -0.82393,0.14205 -1.42128,-0.27046 -1.59209,-1.26126 l -0.32724,-1.89816 c -0.17081,-0.9908 0.25213,-1.58994 1.03434,-1.72479 0.79263,-0.13665 1.30259,0.20501 1.61223,0.81747 l 1.09978,-0.90914 c -0.67035,-1.02281 -1.63488,-1.4472 -2.92814,-1.22424 -1.74171,0.30027 -2.70915,1.54099 -2.23447,4.29437 0.47467,2.75337 1.86393,3.52337 3.24062,3.28603 0.95951,-0.16542 1.45186,-0.79801 1.41807,-1.55468 l 0.16687,-0.0288 z"
         style="font-style:normal;font-variant:normal;font-weight:bold;font-stretch:condensed;font-size:10.5833px;font-family:'IBM Plex Sans Condensed';-inkscape-font-specification:'IBM Plex Sans Condensed, Bold Condensed';font-variant-ligatures:normal;font-variant-caps:normal;font-variant-numeric:normal;font-variant-east-asian:normal"
         id="path1396" />
      <path
         d="m -129.84286,104.31099 1.00487,-0.033 1.23414,2.75495 1.63953,-0.0539 -1.38674,-2.88758 c 0.78358,-0.32224 1.18097,-1.11889 1.14551,-2.1978 -0.0459,-1.39625 -0.78412,-2.272053 -2.10632,-2.228607 l -3.19443,0.104965 0.2426,7.383162 1.5126,-0.0497 z m -0.0414,-1.25873 -0.066,-2.00975 1.49144,-0.049 c 0.40195,-0.0132 0.66172,0.15827 0.67841,0.66599 l 0.0209,0.63466 c 0.0167,0.50772 -0.23127,0.69588 -0.63322,0.70909 z"
         style="font-style:normal;font-variant:normal;font-weight:bold;font-stretch:condensed;font-size:10.5833px;font-family:'IBM Plex Sans Condensed';-inkscape-font-specification:'IBM Plex Sans Condensed, Bold Condensed';font-variant-ligatures:normal;font-variant-caps:normal;font-variant-numeric:normal;font-variant-east-asian:normal"
         id="path1398" />
      <path
         d="m -122.19598,107.43011 c 1.75792,0.18286 3.02533,-0.74934 3.31112,-3.49676 0.28579,-2.74742 -0.76263,-3.92051 -2.52055,-4.103373 -1.75793,-0.18286 -3.02534,0.749343 -3.31113,3.496763 -0.28579,2.74742 0.76263,3.92051 2.52056,4.10337 z m 0.13796,-1.32634 c -0.83159,-0.0865 -1.26216,-0.65267 -1.15813,-1.65268 l 0.19928,-1.91583 c 0.10402,-1.00002 0.6419,-1.46545 1.47349,-1.37894 0.83159,0.0865 1.26216,0.65267 1.15814,1.65268 l -0.19929,1.91583 c -0.10402,1.00002 -0.64189,1.46545 -1.47349,1.37894 z"
         style="font-style:normal;font-variant:normal;font-weight:bold;font-stretch:condensed;font-size:10.5833px;font-family:'IBM Plex Sans Condensed';-inkscape-font-specification:'IBM Plex Sans Condensed, Bold Condensed';font-variant-ligatures:normal;font-variant-caps:normal;font-variant-numeric:normal;font-variant-east-asian:normal"
         id="path1400" />
      <path
         d="m -116.34633,100.65747 -1.11291,4.45629 c -0.5026,2.01251 -0.0403,3.00063 1.8695,3.47759 1.90984,0.47696 2.7824,-0.1778 3.285,-2.19031 l 1.11291,-4.45629 -1.46831,-0.36669 -1.16163,4.65137 c -0.23592,0.94465 -0.6106,1.2656 -1.4423,1.05789 -0.8317,-0.20771 -1.01149,-0.66713 -0.77558,-1.61178 l 1.16163,-4.65137 z"
         style="font-style:normal;font-variant:normal;font-weight:bold;font-stretch:condensed;font-size:10.5833px;font-family:'IBM Plex Sans Condensed';-inkscape-font-specification:'IBM Plex Sans Condensed, Bold Condensed';font-variant-ligatures:normal;font-variant-caps:normal;font-variant-numeric:normal;font-variant-east-asian:normal"
         id="path1402" />
      <path
         d="m -110.24618,110.12195 1.016,-2.53443 1.56191,0.62614 c 1.22793,0.49224 2.2287,-0.0986 2.75244,-1.40506 0.52375,-1.3065 0.20819,-2.42498 -1.01973,-2.91723 l -2.96666,-1.18926 -2.7487,6.85671 z m 2.25646,-5.62879 1.38509,0.55525 c 0.37329,0.14964 0.53817,0.42098 0.35308,0.88267 l -0.23627,0.58941 c -0.18509,0.46169 -0.49173,0.544 -0.86502,0.39436 l -1.3851,-0.55525 z"
         style="font-style:normal;font-variant:normal;font-weight:bold;font-stretch:condensed;font-size:10.5833px;font-family:'IBM Plex Sans Condensed';-inkscape-font-specification:'IBM Plex Sans Condensed, Bold Condensed';font-variant-ligatures:normal;font-variant-caps:normal;font-variant-numeric:normal;font-variant-east-asian:normal"
         id="path1404" />
    </g>
  </g>
</svg>
