<svg width="512" height="512" xmlns="http://www.w3.org/2000/svg" xml:space="preserve" style="fill-rule:evenodd;clip-rule:evenodd;stroke-linejoin:round;stroke-miterlimit:2"><path style="fill:#fff" d="M4.358 30.136h249.353v314.012H4.358z" transform="matrix(2.05332 0 0 1.63051 -8.949 -49.136)"/><g><path d="M256 84.909c-94.427 0-171.091 76.664-171.091 171.091S161.573 427.091 256 427.091 427.091 350.427 427.091 256 350.427 84.909 256 84.909Zm0 5c91.668 0 166.091 74.423 166.091 166.091S347.668 422.091 256 422.091 89.909 347.668 89.909 256 164.332 89.909 256 89.909Z"/><circle cx="256" cy="256" r="166.091" style="fill:#fff;fill-opacity:.99"/></g><clipPath id="a"><path d="M256 422c-91.679 0-166-74.321-166-166S164.321 90 256 90s288.45 91.553 288.45 183.232S347.679 422 256 422Z"/></clipPath><g clip-path="url(#a)"><path d="M210.694 117.298c-18.58-3.296-37.246 4.154-50.728 16.1-17.977 15.928-29.726 39.915-24.634 62.717 1.015 4.557 5.093 7.827 9.762 7.827 4.647 0 8.711-3.239 9.749-7.768 5.152-22.464 16.148-38.215 29.062-46.13 12.914-7.914 27.838-8.96 44.941-.243a10.003 10.003 0 0 0 4.252 1.077c-23.481 21.641-43.907 45.71-68.142 60.185.982-.576-1.997.487-3.588.76 1.467-.252-.17-.021-1.24-.022a60.382 60.382 0 0 1-2.99-.074c-1.603-.099-35.313-2.113-71.944 14.993a9.943 9.943 0 0 0-1.653.613c-.008.003-.015.003-.022.007a10.015 10.015 0 0 0-5.655 9.006c.002 5.485 4.516 9.998 10.001 9.998.074 0 .149-.001.223-.003l-.008.008c.019-.001.041-.007.059-.008a9.94 9.94 0 0 0 1.779-.207c22.641-.853 49.314-8.312 66.186-6.629 4.733.473 5.53-.317 7.7-.738 2.17-.42 4.303-.907 4.828-1.018 5.584-1.19 6.804-1.745 11.456-4.836 20.179-13.406 35.134-26.704 46.056-37.3 10.922-10.596 18.896-18.916 20.558-20.042 3.876-2.627 10.179-7.38 16.447-11.922 6.269-4.542 13.629-9.169 13.627-9.168 9.636-4.237 31.928-1.831 53.083.332l.096.015c23.311 2.163 44.023 2.28 66.947 16.764l.059.037c-1.895 3.166-3.795 6.315-5.994 10.46-7.929 14.945-12.229 19.129-16.536 20.699-4.861 1.772-8.471 1.363-12.815-.672-4.343-2.035-9.129-6.139-13.531-11.634a10.007 10.007 0 0 0-7.799-3.74 10.01 10.01 0 0 0-8.544 4.803c-.927-1.9-1.817-3.036-2.894-4.333l-.044-.059c-5.71-6.771-13.055-12.047-21.769-14.048-8.714-2-18.391-.378-27.32 4.71a6.96 6.96 0 0 0-.185.111c-.794.475-1.29.563-2.931 2.177-.41.404-.939.911-1.638 2.067-.699 1.156-1.944 3.354-1.314 6.969.63 3.615 3.857 6.586 5.787 7.455 1.93.87 2.996.859 3.772.894 3.105.139 3.251-.297 4.141-.532a46.67 46.67 0 0 0 2.806-.856l.022-.008-.008.008c4.049-1.348 12.759-.476 21.112 5.846 1.779 1.347 3.274 2.385 4.895 3.271.119.065.299.12.42.184-.252.216-.558.409-.841.657-9.87 8.243-13.643 15.237-20.972 18.425-2.499 1.087-3.843 1.108-5.551.702-1.303-.31-2.379-.533-3.639-.672-.631-.07-1.263-.149-2.451-.067-.594.041-1.33.089-2.584.495s-3.51 1.154-5.455 4.222c-1.945 3.069-1.56 7.687-.591 9.73.97 2.042 1.874 2.758 2.503 3.314 1.257 1.113 1.886 1.373 2.495 1.691 1.218.635 2.2.999 3.447 1.439l.14.052a30.591 30.591 0 0 0 8.135 1.543c-.527.364-1.068.648-1.594 1.018-.234.165-.461.34-.679.524-1.826 1.534-9.304 7.083-14.749 11.191-5.062 1.283-11.462 2.43-16.979 3.64-.316-.03-.707.039-1.033.007-5.14-.503-13.416-1.579-28.073 2.421l2.782-.354c-3.86-.056-7.294.471-10.297 1.417-3.003.947-5.521 1.77-8.393 5.109-1.437 1.669-3.527 4.895-2.621 9.471.906 4.575 4.762 7.28 7.079 8.149 4.585 1.72 7.181 1.025 10.756.347 4.136-.729 7.273-1.595 11.227-2.34-.251.31-.519.619-.937 1.381-.495.9-1.735 2.271-1.159 6.311.288 2.02 1.598 4.669 3.433 6.23a9.85 9.85 0 0 0 4.923 2.267c2.49.4 3.376.003 4.082-.17 1.414-.348 1.816-.602 2.296-.827l.081-.044c15.79-7.563 27.639-16.448 38.822-27.084a10.1 10.1 0 0 0 .207-.207c37.172-10.753 65.247-24.895 88.132-48.307.269-.092.46-.196.731-.288l-.613.177.044-.044c12.566-3.044 21.951-11.583 28.361-21.592 6.481-10.12 10.537-21.92 13.686-33.669a9.997 9.997 0 0 0 .333-2.133c.054-1.186.745-3.4-2.355-7.117-1.55-1.858-4.522-3.388-6.88-3.594-.258-.023-.3.093-.539.088a10.019 10.019 0 0 0-1.683-2.525c-.594-.649-1.421-1.07-2.037-1.697-18.746-19.072-47.542-28.391-80.382-32.252-14.27-1.677-28.124-5.817-41.346-3.24-11.059 2.155-21.446 7.774-31.469 14.394-2.803-3.767-6.379-6.924-10.253-9.722-3.865-2.791-8.193-5.264-14.137-5.359-2.506-.04-5.163 1.151-7.647 2.562-3.856-1.707-7.743-3.078-11.656-3.773Zm120.805 84.198c.272.515.72.959 1.011 1.469l-.037.022c.052.066.117.12.17.185a52.019 52.019 0 0 0 13.427 15.266c-6.352 2.589-13.27 4.981-19.252 7.861 1.515-2.001 3.166-3.987 4.496-5.972.443-.626.871-1.233 1.314-1.934.246-.39.494-.793.812-1.417.317-.624.921-.982 1.196-4.03.137-1.524.175-4.796-2.709-7.855-.686-.726-1.496-.873-2.267-1.314.447-.414 1.018-.462 1.381-.959.337-.463.22-.85.457-1.322h.001Z" style="fill:#fff;fill-rule:nonzero"/><path d="m42.144 243.514 127.012-21.437c31.649-21.389 81.291-68.266 115.291-88.654l72.122 7.861c31.65 5.149 40.501 17.381 53.408 28.352-6.857 19.62-11.561 33.681-31.094 46.462-26.435 8.543-65.411 37.246-97.745 48.425-20.608 7.125-41.977-8.832-51.321.837-39.135 40.495-96.346 79.78-160.113 79.558l-27.56-101.404Z" style="fill:url(#b);fill-rule:nonzero"/><path d="M155.932 206.935c-.681-2.445-1.464-13.154-1.402-19.162 1.089-29.24 13.853-41.877 37.169-52.085 6.283-2.68 16.83-4.565 27.159-4.177 3.425 1.727 6.631 3.183 7.769.763 10.531 1.001 20.431 8.05 22.984 16.791-2.194 1.949-2.46 2.138-4.778 4.141a14.038 14.038 0 0 0-1.783-.882c-17.178-6.784-38.756.535-45.596 11.498-.661 1.114-3.418 6.177-6.128 11.253-6.37 11.931-9.047 15.921-14.752 21.987-3.255 3.462-12.798 12.002-14.197 12.706-3.377 1.758-5.75 1.217-6.445-2.833Zm44.386-32.265c.063-7.235 6.333-15.248 12.148-17.781 6.178-2.692 21.99-4.907 28.499-1.521.268.139.632.356.801.502-.661.759-1.254 1.388-1.688 2.486-13.65.753-17.229 8.51-22.073 18.457-2.695 5.351-5.6 7.84-9.362 8.022-3.866.122-8.36-6.118-8.325-10.165Z" style="fill:#fcc807;fill-rule:nonzero"/><path d="M199.268 258.442c-8.854-3.269-11.56-13.117-14.24-20.799-1.285-3.714-1.597-6.008-1.327-9.769.223-3.115.654-5 3.417-14.947.339-1.221 1.323-2.089 2.247-1.982 1.009.117 1.65.956 1.844 2.415.439 3.308 1.516 6.993 4.613 15.788 5.977 16.973 6.508 18.592 6.23 26.3-.077 2.121-.31 3.908-2.784 2.994Zm8.813-64.43c1.58 3.151 1.715 9.567 7.583 30.347 1.254 4.441 2.51 9.243 2.791 10.671.573 2.911.748 6.781.506 11.215-.161 2.957-.168 2.985-.925 3.584-.881.698-1.224.763-2.169.031-7.234-5.594-15.142-36.052-11.45-53.58.546-2.035 2.568-4.452 3.664-2.268Zm128.2-48.378c4.275 10.086 4.061 24.178 1.417 32.666-1.331 4.276-1.835 5.536-3.379 5.485-.938-.031-1.283-.525-2.342-1.976-7.066-9.685-10.894-28.958-4.685-37.672 1.913-2.685 6.547-4.265 8.989 1.497Zm-40.915 33.575c-3.769-13.273-3.988-26.957.062-37.988 1.591-4.334 18.273-3.038 18.093.593-.706 14.204 3.437 29.643 5.257 44.162-5.808-5.781-12.153-8.393-23.412-6.767Zm-14.956 53.537a129.153 129.153 0 0 1-1.334-2.995c-4.32-10.174-11.325-34.062-13.774-47.451-2.36-12.905-2.815-25.027 2.771-36.323 1.438-2.907 10.575-9.285 12.538-4.388.198.494.242 2.895.281 3.594.188 3.414.32 8.156.09 20.014-.472 24.334.096 32.245 3.712 51.715.687 3.698 1.327 6.809 1.341 6.936.272 2.437.714 5.092 1.126 7.789 1.428 18.159-.744 14.196-6.751 1.109Zm-27.536-48.662c-.081 14.219.557 17.857 5.737 32.753 2.501 7.191 3.299 10.188 4.317 16.208.558 3.303.496 4.296-.281 4.495-.783.201-1.601-.502-4.518-3.877-3.737-4.324-6.071-7.729-8.476-12.362-5.929-11.424-8.5-19.334-10.079-31.006-1.005-7.428-1.19-11.426-.723-15.625.449-4.039.845-6.111 2.547-8.572 2.935-4.244 5.232-6.26 6.741-5.275 3.9 7.464 4.731 17.644 4.735 23.261Zm-25.443-.898c1.476 5.185 1.897 6.937 3.69 16.094 1.631 8.336 3.067 14.184 5.745 23.405 2.333 8.03 2.788 10.529 2.852 15.649.043 3.472-.124 4.23-1.044 4.719-.823.438-2.49-.9-6.148-4.931-4.986-5.494-9.518-16.753-12.082-30.013-1.53-7.91-1.691-12.996-.561-17.652.467-1.922 2.013-7.485 3.146-9.234 3.53-5.448 3.942.346 4.402 1.963Z" style="fill:#9c66a4;fill-rule:nonzero"/><path d="M225.691 280.027c74.087-13.056 115.665-27.39 148.442-62.557-16.249 1.171-27.329-8.363-33.853-20.737 10.082 12.584 22.971 20.773 37.574 15.451 7.751-2.825 13.675-9.813 21.95-25.411 5.872-11.068 11.376-19.701 11.284-17.699-6.029 22.49-15.496 43.731-35.036 48.248-31.532 10.706-56.263 21.656-80.663 38.812-9.095 7.642-54.655 40.486-48.332 37.53 14.83-7.104 25.583-15.165 36.251-25.312-32.005 11.137-25.374-.388-52.549 7.029-11.34-.165-16.213 6.745-5.068 4.646ZM87.864 236.348c34.857-16.822 66.744-14.761 68.657-14.642 1.914.118 5.498.153 6.543-.026 1.115-.192 4.78-.734 6.88-1.927 30.226-17.996 52.535-48.249 79.605-70.782-11.416-16.699-20.796-17.967-23.284-14.647 3.162 1.352 7.124 6.564 7.124 6.564-39.394-20.077-77.059 4.071-88.294 53.048-7.913-35.429 39.025-85.694 78.672-61.034 5.155-12.657 24.771 5.028 26.307 15.476 12.26-9.55 25.244-16.938 37.697-19.365 8.853-1.725 23.284 1.597 38.263 3.358 32.682 3.842 60.196 13.273 76.21 30.767-25.247-15.952-48.625-16.16-71.367-18.27-20.689-2.115-43.599-5.928-58.123.458-5.743 2.524-24.968 17.43-31.659 21.964-8.794 5.96-27.46 31.33-66.539 57.293-1.395.926-6.333 3.028-8.007 3.384-1.544.329-7.705 1.765-9.449 1.591-20.845-2.079-48.778 6.343-69.236 6.79Zm198.422-.438c-3.951-1.394-3.571-1.994.631-.995 3.787.9 7.693.545 11.854-1.265 10.515-4.575 15.215-13.108 23.432-19.957 3.689-3.225 2.635-1.514.804 1.068-8.823 13.166-21.034 26.428-36.721 21.149Zm.723-49.3c-3.672 1.216-4.488 1.18-2.342-.105 14.339-8.171 27.179-3.943 36.49 7.097 3.342 4.024 2.285 5.013-3.843.374-10.483-7.934-22.08-10.105-30.305-7.367v.001Z" style="fill-rule:nonzero"/><path d="M131.925 248.036c-.589-.434.96-1.997 2.776-2.8 1.779-.787 5.955-1.377 6.615-.934.388.26.334.387-.4.936-1.347 1.008-4.561 2.545-5.722 2.736-2.004.329-2.882.346-3.269.062Zm16.522-.343c-.342-.402 1.137-1.736 2.335-2.108 1.312-.406 4.172-.319 4.136.126-.033.405-1.935 1.684-3.044 2.047-1.012.332-3.124.292-3.427-.065Zm.392-7.427c.061-.759 1.532-1.865 3.311-2.487 1.905-.666 7.471-.626 7.209.053-.085.22-1.714 1.04-3.62 1.824-3.058 1.257-3.67 1.407-5.204 1.284-1.483-.12-1.733-.219-1.696-.674Zm-13.027-3.08c-1.695-.503.879-2.858 3.798-3.474 2.468-.522 4.815-.491 5.451.071.544.48.544.491-.072 1.069-.342.322-1.729 1.019-3.083 1.551-2.407.943-4.603 1.226-6.095.783h.001Zm62.929-51.909c-.316-.15-.852-.944-1.191-1.765-.932-2.255-.613-5.257.825-7.774.586-1.027 1.405-2.139 1.819-2.471 1.821-1.461 4.386-1.926 5.091-.922.287.408.21 1.057-.44 3.731-1.059 4.357-1.9 6.339-3.313 7.805-1.403 1.456-2.016 1.762-2.791 1.396Zm14.29-11.848c-1.466-.378-1.871-.678-1.817-1.346.056-.7 2.885-3.127 4.621-3.965 4.299-2.075 10.012-1.157 9.792 1.573-.087 1.084-.902 1.588-4.734 2.927-3.308 1.156-5.603 1.392-7.862.811Zm-10.073-9.135c-.619-1.421 1.009-4.313 3.185-5.658.73-.452 1.997-.962 2.816-1.135.823-.174 2.265-.219 3.373-.163 1.263.314.846.834.223 1.636a131.14 131.14 0 0 1-1.926 1.798c-3.084 2.825-4.558 3.733-6.583 4.054-.629.1-.862-.015-1.088-.532Zm20.601-2.65c-2.505-.712-3.177-1.151-2.995-1.96.295-1.305 7.047-3.109 9.529-2.545 1.421.322 2.64 1.58 2.554 2.636-.21 2.61-3.849 3.359-9.088 1.869Zm9.969-6.583c-2.189-.821-5.85-2.723-6.2-3.221-.476-.677.009-.921 2.452-1.233 2.516-.321 5.931-.112 7.486.458 1.827.669 2.401 2.627 1.154 3.936-.739.776-2.913.803-4.892.06Zm-21.015-5.537c-1.158-.644-1.146-1.622.036-2.817 1.997-2.02 5.87-2.88 8.924-1.984 1.622.476 3.368 1.599 3.529 2.27.046.189-.627.705-1.494 1.147-3.485 1.775-9.035 2.474-10.995 1.384Zm26.101-1.294c-1.03-.362-2.317-.936-2.86-1.274-1.219-.761-2.765-2.451-2.723-2.977.098-1.209 4.572-.866 7.095.544 1.672.935 3.592 2.863 3.537 3.55-.043.539-1.326 1.026-2.383.906-.436-.051-1.636-.387-2.666-.749Z" style="fill:#12110f;fill-rule:nonzero"/><path d="M147.124 307.021c-3.369-1.823-4.125-6.22-1.904-11.087 4.673-10.244 11.861-17.801 21.532-22.64 4.023-2.013 6.182-2.969 6.329-2.804.078.088-.471.981-1.222 1.985-1.664 2.228-2.728 4.076-4.446 7.721a120.098 120.098 0 0 0-5.421 13.676c-.779 2.376-1.702 4.92-2.05 5.653-1.704 3.589-4.029 6.209-6.539 7.37-1.284.593-1.74.68-3.426.651-1.554-.028-2.128-.132-2.853-.525Zm-20.519-10.988c-1.003-.589-1.449-1.849-1.597-4.504-.129-2.327.243-4.962 1.001-7.09 1.275-3.583 5.069-8.609 8.919-11.817 3.842-3.201 8.724-5.359 24.86-10.985 3.705-1.292 8.388-2.98 10.406-3.75 3.392-1.295 3.69-1.37 3.938-.987.147.228.259.472.248.541-.011.07-1.103.89-2.427 1.822-6.724 4.736-13.248 11.539-21.187 22.095-8.448 11.232-13.843 15.032-21.435 15.1-1.608.014-2.114-.065-2.726-.425Zm41.954-10.394c-.455-.51-.717-1.865-.637-3.286.154-2.718 2.205-5.433 4.89-6.469 2.388-.922 3.078-.646 2.178.873-.216.365-.648 1.598-.961 2.74-.923 3.37-1.316 4.163-2.691 5.429-1.327 1.222-2.14 1.43-2.779.713Zm-53.725-13.075c-.326-.141-.699-.563-.83-.938-.329-.943.252-1.92 3.097-5.203 2.746-3.171 6.447-6.499 9.036-8.125 4.514-2.835 12.513-6.644 17.67-8.413 3.429-1.177 7.566-2.296 15.334-4.148 7.011-1.671 7.781-1.837 7.771-1.672-.003.06-1.534 1.134-3.401 2.387-3.501 2.35-6.379 4.795-13.069 11.104-4.243 4.002-7.075 6.135-11.651 8.774-7.156 4.127-11.161 5.431-19.07 6.209-3.98.392-4.039.392-4.887.025Zm47.218.275c.015-.257 1.186-1.768 2.299-2.966.532-.573 1.658-1.477 2.501-2.009 1.556-.98 4.018-1.967 4.343-1.74.293.206-1.306 2.005-3.261 3.669-2.371 2.019-5.929 3.861-5.882 3.046Zm-48.514-12.025c-1.142-.508.039-3.921 1.913-5.53 2.087-1.792 4.818-2.722 9.411-3.203 3.548-.371 4.551-.326 4.419.198-.103.406-.703.789-2.998 1.915-.764.375-2.244 1.347-3.287 2.16-4.179 3.256-5.033 3.835-6.164 4.179-1.526.463-2.665.56-3.294.281Zm34.445 1.671c.012-.211 1.083-1.358 2.38-2.55 3.24-2.977 6.555-4.865 10.689-6.086 2.467-.729 3.731-.909 4.084-.581.486.453.081.862-1.924 1.945-1.059.572-3.424 1.983-5.254 3.137-3.254 2.05-7.771 4.205-9.254 4.414-.601.084-.739.031-.721-.279Zm-39.056-11.88c-3.389-.686-4.183-1.228-4.093-2.795.075-1.306 3.904-5.851 6.671-7.92 1.799-1.345 4.932-3.037 6.597-3.563 1.381-.436 11.274-2.232 16.571-3.009 8.417-1.234 16.405-1.583 24.44-1.068 5.311.34 6.616.512 6.595.871-.006.102-.4.234-.876.295-.476.061-2.44.529-4.363 1.041-4.003 1.064-10.442 3.692-15.947 6.51-1.948.996-4.39 2.227-5.427 2.735-6.124 2.997-15.233 6.196-20.344 7.145-2.477.46-6.892.351-9.824-.242Zm41.736-6.637c.011-.072.588-.53 1.283-1.015 3.243-2.269 6.13-3.467 9.578-3.973 1.883-.277 4.548-.229 4.53.081-.013.216-5.06 2.799-7.436 3.804-2.194.929-3.321 1.209-4.416 1.097-.501-.051-1.507-.041-2.235.023-.729.064-1.315.056-1.304-.017Z" style="fill:#fcc807;fill-rule:nonzero"/><path d="M424.664 187.67c-15.643 1.315-32.367 5.8-49.599 12.195-33.485 12.426-69.487 32.794-104.306 55.172-6.993-.395-12.877-1.31-19.356-1.764-7.358-.516-15.751.081-25.57 3.713-11.934 4.413-20.878 14.875-27.911 23.843-1.329 1.695-2.28 2.935-3.226 4.577-.473.821-1.052 1.55-1.521 3.89-.234 1.171-.551 2.982.406 5.618.957 2.636 3.939 5.385 6.348 6.193 4.819 1.617 6.173.201 7.272-.206 1.098-.408 1.76-.769 2.436-1.144 1.35-.751 2.607-1.569 4.074-2.555l.03-.022c7.286-4.932 12.205-9.791 16.395-12.926 3.292-2.462 6.265-3.838 10.113-4.724-17.743 14.984-35.547 28.431-60.229 34.296-3.185.757-14.418.323-27.239.229-12.083-.088-26.29.855-40.261 5.758-.5.054-.996.145-1.483.273-2.079.554-3.681.995-4.917 1.366a33.56 33.56 0 0 0-1.697.546c-.287.102-.579.211-1.063.428-.485.217-.721-.535-3.47 2.495-.344.379-1.157 1.555-1.159 1.558l-1.166 2.849-.067 4.378 1.875 4.075 2.377 2.214c.003.002 1.316.751 1.816.952a9.156 9.156 0 0 0 2.126.598c1.955.326 2.185.136 2.613.104.858-.066 1.289-.146 1.875-.244 1.174-.196 2.632-.484 4.592-.893l.162-.03c17.385-3.935 30.799-4.043 41.464-3.321 10.666.721 18.051 2.723 26.524 1.808 30.208-3.261 61.699-26.376 83.422-47.118l-.605.538c25.75-20.884 61.69-42.759 97.249-57.933 35.315-15.068 70.446-23.037 93.329-19.015-7.935 12.324-16.261 25.952-26.781 35.92-13.239 12.544-27.305 19.308-51.6 10.261a9.977 9.977 0 0 0-2.82-.598 10.024 10.024 0 0 0-9.569-7.095c-1.713 0-3.398.44-4.892 1.278-9.193 5.168-14.959 6.299-21.983 7.972-7.024 1.674-15.552 4.124-24.796 11.206l-.125.096c-6.453 5.108-10.116 12.298-12.084 20.293-1.469 5.964-1.914 12.945.753 19.311-25.853 5.652-51.69 12.73-73.052 26.39-25.892 16.556-53.134 40.111-79.872 57.409l-.184.118a764.614 764.614 0 0 0-9.065 6.238 194.247 194.247 0 0 0-2.946 2.096c-.382.279-.703.513-1.04.775a14.71 14.71 0 0 0-.598.495c-.005.004-.033.041-.037.044a10.004 10.004 0 0 0-2.119 2.496c-.331.542-1.267.835-1.484 4.776-.095 1.717.811 4.737 2.709 7.035l-.074.007c.08.088.161.174.244.259.228.256.285.606.546.834.297.259.446.073.738.28l.008.008a10.004 10.004 0 0 0 4.924 1.875c.214.011.672.322.849.325 2.72.037 3.201-.447 3.809-.665a15.459 15.459 0 0 0 1.402-.576c1.511-.692 3.397-1.703 6.474-3.329 29.778-14.024 45.318-29.201 63.957-42.446 16.047-11.402 35.892-22.081 70.704-31.764-.73 2.726-1.792 5.923-2.599 8.312-2.601 7.703-5.261 11.706-8.939 13.103-4.038 1.532-8.446 1.988-14.159 2.731-5.713.744-12.751 1.901-20.064 5.795a10.54 10.54 0 0 0-.856.509c-4.88 3.265-8.793 6.244-11.804 8.918-1.505 1.336-2.783 2.585-3.942 3.949-1.158 1.364-2.432 2.341-3.336 6.112-.452 1.886-.627 5.389 1.528 8.541 2.154 3.152 5.504 4.272 7.441 4.533 3.873.521 5.283-.32 7.086-.945 3.606-1.25 7.469-3.26 12.852-6.459l-.539.295c4.36-2.241 15.217-2.211 27.653-6.755 17.518-6.4 26.412-16.402 31.048-26.796 1.557-3.49 2.838-7.014 4.178-10.534 9.412-.928 19.048-2.998 27.476-7.721 7.183-4.027 13.556-10.731 16.306-19.267 9.119-2.254 20.459-5.236 31.883-9.715 10.348-4.057 20.709-8.666 27.852-16.402 4.876 2.99 10.085 5.946 17.332 8.024.049.391.103.922.103.923l.776 2.318c.001.003 3.879 4.264 3.882 4.266l2.326 1.019c.002.001 1.373.325 1.941.376a9.58 9.58 0 0 0 2.584-.103c2.526-.428 2.88-.934 3.381-1.218 1-.567 1.289-.832 1.668-1.129a29.09 29.09 0 0 0 2.104-1.838c.572-.542 2.749-2.39 3.831-3.212a56.656 56.656 0 0 0 2.399-1.911c.359-.305.687-.597 1.063-.953.376-.355.458.148 2.023-2.45l.007-.023c1.022-1.703 1.952-5.11 1.1-8.127-.852-3.017-2.677-4.674-3.853-5.551-2.351-1.755-3.427-1.816-4.569-2.141-2.101-.598-4.444-.998-7.685-1.543a9.794 9.794 0 0 0-.657-.133h-.015c-7.309-1.24-12.98-3.42-19.171-6.334.244-.688.519-1.393.731-2.059.03-.097.051-.206.081-.303.69-.302 1.403-.358 2.089-.686 21.093-10.083 39.674-32.165 50.891-68.224.33-1.065.48-2.178.443-3.292-.015-.513.363-.968-.723-3.78-.544-1.405-1.996-4.164-5.397-5.654-.051-.023-.096-.001-.147-.022-.894-1.735-1.959-2.871-2.658-3.47-2.215-1.897-3.633-2.402-5.61-3.27-12.889-6.249-27.395-8.109-42.985-6.799h.001Zm-59.078 87.948a10 10 0 0 0 3.832 4.023c.486.283 1.063.408 1.557.679l-.022.044c.085.032.158.021.243.052 8.384 4.557 17.786 7.52 27.675 8.091-2.148 1.321-3.603 2.682-6.578 3.986-11.438 5.012-28.096 8.889-46.756 12.586-5.575 1.104-11.917 2.593-17.783 3.713-.392-3.209.581-10.186 2.022-12.512 1.594-2.02 8.794-6.79 17.178-10.881 6.269-3.06 12.674-6.158 18.632-9.781Zm82.552 38.888c.538-.032.99.159 1.536.103l-.886.052c.39-.006.638.086-.414-.067-.034-.005-.198-.085-.236-.088Z" style="fill:#fff;fill-rule:nonzero"/><path d="M89.634 336.62a5.507 5.507 0 0 0 5.434-2.83c.857-1.514 41.74-7.69 42.798-7.563 61.206 7.301 102.893-27.406 145.462-61.547 25.09-17.035 68.374-33.786 102.29-51 31.964-11.265 56.57-5.361 81.003-1.301-16.998 36.274-40.399 63.548-65.188 89.067L250.477 343.79l-121.718 81.126-39.125-88.296Z" style="fill:url(#c);fill-rule:nonzero"/><path d="M223.274 275.791c7.537-5.79 13.731-7.119 18.484-8.276 2.684-.654 8.364-.995 22.02-1.323l7.346-.176-.247.676c-.208.572-.814.822-3.929 1.625-2.026.522-3.916 1.09-4.199 1.263-.305.184-2.438.314-5.199.314-8.289.003-12.53.859-18.498 3.742-4.737 2.288-10.291 5.502-13.079 7.57-3.781 2.803-8.271 6.854-8.69 8.012-.203.563-.62.62-.763.62-.144 0-1.954 1.423-4.228 2.485-4.095 1.913-5.886 2.361-5.712 1.613 2.411-8.181 10.629-13.441 16.694-18.145ZM114.999 337.914c-.247-.143-1.494-.528-2.772-.855-4.788-1.227-4.628-2.428.771-5.79 1.265-.787 2.301-1.606 2.301-1.819 0-.425-.07-.408 6.535-1.663 10.011-1.902 20.564-3.141 28.075-3.295 5.543-.114 11.135.058 10.249.314-.889.259.117.456 9.21 1.812 12.213 1.821 12.462 1.885 12.014 3.052-.247.644-.97.744-8.004 1.107-7.33.379-11.398.73-17.528 1.513-5.075.648-10.188 1.637-10.724 2.074-.179.147-4.524.664-9.655 1.149-10.743 1.016-16.686 1.788-19.578 2.545-.246.064-.648 0-.894-.144Z" style="fill:#facd0b;fill-rule:nonzero"/><path d="M130.457 403.227c3.225 0-4.121-1.092-4.25-2.6-.116-1.352.841-3.266 3.171-6.345 3.478-4.595 7.116-6.834 16.814-10.35 4.532-1.642 9.396-3.073 23.628-6.948 5.964-1.623 13.317-3.713 16.34-4.643 4.332-1.333 16.065-5.011 18.048-5.658.204-.066.371.005.371.158 0 .442-6.863 4.844-15.746 10.1a2316.632 2316.632 0 0 0-11.734 6.983c-12.165 7.334-27.402 15.584-32.56 17.629-4.935 1.958-19.014 1.674-14.082 1.674Zm-13.295-13.123c-.897-.232-.612-1.434.59-2.489 1.573-1.381 5.617-3.972 7.843-5.025 3.258-1.541 5.901-1.01 5.901 1.185 0 2.076-3.057 3.939-8.938 5.446-3.276.84-4.679 1.07-5.396.883Zm13.279-10.95c-.008-1.932-2.366-2.937-1.513-4.976.566-1.355 4.359-4.77 6.47-5.825.976-.488 2.345-.972 3.042-1.077 2.393-.359 4.962.865 5.99 2.853.51.985.569 3.15.12 4.342-.768 2.037-3.494 3.897-6.883 4.696-2.438.575-6.048.568-7.226-.011v-.002Zm-17.25-.679c-1.952-1.235-1.46-3.373 1.272-5.523 2.174-1.71 5.869-3.654 7.401-3.893 2.763-.431 5.065 1.462 4.794 3.942-.273 2.488-1.812 3.765-6.005 4.982-3.74 1.086-6.261 1.252-7.462.492Zm56.77-6.3c-.297-.48.251-.972 3.6-3.232 3.512-2.37 7.486-4.38 10.914-5.519 1.988-.661 2.473-.725 3.341-.438 1.238.408 1.909 1.301 1.909 2.54 0 1.222-1.067 2.35-3.047 3.225-5.313 2.348-16.026 4.542-16.717 3.424Zm-17.446-.489c0 .296-.52-.373-.52-.662 0-1.667 5.857-3.853 7.071-2.639 1.096 1.096-.286 2.467-3.085 3.06-2.104.446-3.466-.695-3.466.241Zm104.822-3.522c-1.398-.197-7.477-1.375-7.868-1.902-.891-1.199-.065-2.024 4.318-4.311 3.999-2.086 6.581-3.006 10.161-3.619 6.591-1.13 10.833-.939 16.262.732 3.7 1.139 6.171 1.161 9.777.086 1.448-.432 3.026-.852 3.506-.933l.873-.149-1.144 1.602c-1.587 2.22-4.493 5.169-6.143 6.232-3.019 1.944-4.121 2.147-11.987 2.205-3.921.029-8.935.132-11.14.228-2.206.096-4.394.142-5.562-.022l-1.053-.149Zm-141.249-1.581c-.493 0-.634-.824-.634-1.057 0-1.215 3.395-3.871 7.352-5.75 1.706-.809 2.663-1.08 3.868-1.091 1.443-.014 1.689.082 2.47.956 1.052 1.178 1.113 2.29.199 3.647-1.208 1.792-5.457 3.331-10.315 3.736-2.1.175-2.125-.441-2.94-.441Zm25.59-3.051c0 2.572-.339-3.362 5.444-6.101 4.253-2.015 6.952-2.068 8.448-.165 1.117 1.419.548 3.49-1.301 4.739-.515.348-1.739.85-2.719 1.115-2.254.61-9.872-.631-9.872.412Zm22.23-2.999c0-2.238-1.455-2.443 1.615-4.306 2.781-1.686 7.791-3.867 10.134-4.41 1.705-.396 2.011-.394 2.873.015 1.217.577 2.579 2.641 2.579 3.906 0 2.026-3.01 3.502-8.929 4.377-4.875.72-8.272 1.344-8.272.418Zm-54.185-.951c-.887.254-.639-.928.079-1.646 1.345-1.345 8.034-4.167 9.878-4.167.47 0 1.232.195 1.694.434 1.529.791 1.623 2.183.239 3.567-1.19 1.19-3.959 1.899-8.399 2.151-2.564.145-2.897-.509-3.491-.339Zm25.986-3.223c0 .821-.193-1.201 1.345-2.305 2.478-1.78 4.579-2.075 5.192-.729.675 1.481-1.248 2.869-4.526 3.268-1.271.154-2.011-.67-2.011-.234Zm-26.989-4.309c-3.048-1.092-4.667-3.06-4.628-5.627.051-3.4 3.142-6.47 7.714-7.662 3.689-.962 16.966-2.47 32.614-3.703 2.287-.18 8.021-.663 12.742-1.074 4.721-.41 8.933-.703 9.358-.651.491.059-2.111 1.061-7.098 2.732-10.55 3.537-16.981 5.894-28.668 10.507-5.392 2.128-11.141 4.297-12.775 4.821-3.807 1.219-7.048 1.449-9.259.657Zm98.802-6.107c-1.063-.842-1.04-1.662.113-3.955 2.511-4.995 5.248-8.257 9.049-10.787 5.267-3.504 10.476-5.327 16.456-5.758 7.122-.513 10.998-.629 10.998-.328 0 .161-.622.767-1.381 1.347-.76.58-3.239 2.855-5.509 5.055-4.958 4.806-7.544 6.95-11.851 9.828-4.743 3.169-8.636 4.493-14.842 5.047-1.997.179-2.296.134-3.033-.449Zm-55.424 1.453c-1.619.809-1.515-2.39.311-3.586 2.629-1.723 12.457-4.911 15.203-4.932 2.979-.023 4.288.948 4.288 3.183 0 .892-.217 1.311-1.123 2.173-1.691 1.608-5.361 2.551-12.797 3.288-3.933.39-4.764-.685-5.882-.126Zm39.259-10.247c-.481-1.252 2.959-4.926 5.939-6.345 2.128-1.013 8.538-2.778 9.558-2.632 1.434.205.588 1.234-3.417 4.157-4.455 3.252-5.925 4.103-8.298 4.807-2.078.617-3.549.622-3.782.013Zm67.311-14.053c-1.121-.908-.914-2.251.765-4.968 4.305-6.97 8.629-10.66 15.899-13.571 5.293-2.12 10.282-2.701 13.594-1.584 2.221.749 2.398 1.257 1.275 3.657-1.964 4.197-5.862 8.456-10.745 11.738-5.64 3.792-10.487 5.263-17.386 5.278-2.216.005-2.841-.096-3.402-.55Zm-17.028-12.297c-1.965-1.482 1.401-6.427 5.38-7.905 3.495-1.298 9.535-2.189 10.336-1.525 1.123.932.583 1.641-3.799 4.995-2.335 1.788-4.842 3.557-5.57 3.931-1.675.861-5.472 1.163-6.347.504Zm115.925 1.036c-4.188-1.258-4.643-.936-5.181-1.601-.486-.599-.509-.779-.166-1.32.518-.82 10.001-5.664 14.917-7.62 4.448-1.771 10.851-3.455 21.392-5.629 4.085-.842 8.477-1.878 9.76-2.302 4.327-1.429 7.922-4.253 13.054-10.254 3.189-3.73 3.98-4.332 5.402-4.113.322.049.845.112 1.231.211.551.143.902.416.921.833.004.124.503.898-2.243 5.982-2.128 3.941-4.036 5.831-6.589 8.27-7.282 6.957-17.378 11.096-39.567 16.221-7.103 1.918-7.976 2.811-12.931 1.322Zm-88.101-17.452c-.919-.65-.843-1.508.367-4.165 3.525-7.734 9.275-12.381 20.955-16.934 2.216-.865 4.51-1.662 5.095-1.772 2.245-.421 3.949 1.509 3.107 3.518-.217.517-1.582 2.009-3.033 3.317a433.208 433.208 0 0 0-6.209 5.75c-6.207 5.865-9.835 8.237-14.774 9.661-3.688 1.063-4.723 1.18-5.508.625Zm30.024-3.004c-.466-1.212 3.211-6.207 6.359-8.639 3.456-2.67 5.183-3.651 6.43-3.651 1.977 0 2.936 1.976 1.8 3.709-.66 1.007-5.313 5.085-7.18 6.293-1.762 1.14-5.647 2.773-6.595 2.773-.346 0-.712-.218-.814-.485Zm-85.43-1.502c-1.192-.312-.256-1.813 2.969-4.76 3.763-3.439 7.093-5.876 11.367-8.318 8.182-4.674 12.886-6.524 18.269-7.184 3.451-.423 15.597-.443 15.597-.026 0 .494-4.608 3.342-8.764 5.418a800.176 800.176 0 0 1-10.191 4.948c-13.448 6.414-17.706 8.066-24.16 9.369-3.774.762-4.135.801-5.087.553Zm187.767-14.194c1.48-.24.4-.968-2.387-1.498-7.245-1.377-12.664-3.653-17.8-7.475-4.239-3.155-5.298-4.18-5.298-5.127 0-1.249 1.447-1.761 6.04-2.138 4.652-.382 8.007-.197 14.013.773 9.898 1.6 14.066 1.667 19.223.311 6.793-1.786 13.168-5.034 19.398-9.882 8.874-6.907 15.121-13.285 23.362-23.853 8.323-10.673 10.768-14.344 11.644-14.629.446-.144.141.542.738-.035 2.754-.541-12.506 19.374-14.055 21.765-10.352 15.664-17.09 23.546-25.792 30.172-8.552 6.511-18.172 10.926-26.956 11.392-.52.029-1.611.243-2.13.224Zm-58.45-10.841c-1.038-1.039-.33-2.065 4.254-6.162 7.999-7.147 11.81-9.821 19.77-13.868 12.017-6.111 15.719-7.035 33.053-8.249 5.67-.397 6.322-.285 6.13 1.058-.097.678-.92 1.154-4.413 2.552-2.108.843-3.952 1.899-13.946 7.981-4.405 2.682-16.774 9.019-21.687 11.113-1.716.731-4.451 1.755-6.078 2.276-3.796 1.216-14.545 3.881-15.652 3.881-.466 0-1.11-.262-1.431-.582Zm-26.761-1.15c-1.044-.846-.588-1.809 2.433-5.133 5.918-6.513 10.176-9.321 16.635-10.971 2.743-.7 6.454-.772 7.66-.148.949.49 1.21.989 1.21 2.315 0 .761-.424 1.33-2.471 3.318-6.013 5.837-11.153 8.453-20.483 10.424-4.179.883-4.136.882-4.984.195Zm28.829-23.947c0-.535.68-1.333 2.6-3.054 3.307-2.965 4.81-3.991 8.196-5.595 4.93-2.335 9.871-3.639 15.837-4.18 2.554-.231 3.565-.02 3.825.801.307.966-.528 1.6-3.511 2.665-1.504.538-5.596 2.441-9.094 4.23-3.498 1.789-7.277 3.573-8.399 3.965-2.739.957-6.831 1.892-8.277 1.892-1.049 0-1.177-.078-1.177-.724Zm57.931-13.121c-2.888-.775-3.701-1.31-3.802-2.504-.08-.959.102-1.234 2.08-3.152 3.78-3.664 7.295-4.911 13.903-4.933 3.267-.011 4.726.137 7.873.799 3.848.81 4.901 1.292 4.901 2.245 0 .76-.747 1.265-4.159 2.811-5.26 2.384-9.248 3.947-11.716 4.593-2.796.732-6.651.792-9.08.141Z" style="fill:#fd0e55;fill-rule:nonzero"/><path d="M231.24 394.084c-.838-.168-1.592-1.42-1.592-2.215.001-1.075 1.47-6.702 2.28-8.729 1.366-3.421 3.095-5.974 6.319-9.33 2.981-3.103 6.938-5.9 9.152-7.024 1.068-.542 1.559-.67 2.525-.428 5.364 1.346 7.727 1.523 22.356 1.245 12.404-.235 11.639.086 21.406-8.991 1.216-1.13 2.264-1.999 2.329-1.931.065.068-.113 1.489-.397 3.157-.283 1.668-.403 2.963-.266 2.879.368-.228.321-.06-.513 1.827-1.146 2.591-3.102 5.453-5.365 7.853-5.688 6.029-12.486 8.611-22.698 8.618-6.41.004-11.055 1.048-16.481 3.703-3.976 1.945-7.944 4.557-10.595 6.973-1.213 1.106-2.148 1.74-2.414 1.638-.239-.092-1.232-.019-2.179.266-1.283.387-2.833.697-3.867.489ZM147.34 406.42c-3.148-.383-3.711-1.558-2.193-4.575.711-1.411.972-1.662 2.006-1.926 4.69-1.199 12.406-4.945 25.146-12.207 4.843-2.761 8.979-5.02 9.191-5.02.592 0 5.774-2.478 12.008-5.742 3.104-1.626 8.652-4.514 12.329-6.418 3.676-1.904 7.085-3.714 7.575-4.021l.892-.559-.595.609c-1.227 1.258-9.358 7.514-9.358 7.2 0-.474-.873.096-15.3 9.982-32.679 22.393-34.756 23.523-41.701 22.677Zm55.813-31.565c0-.061.234-.295.52-.519.471-.37.482-.36.112.112-.388.495-.632.652-.632.407Z" style="fill:#facd0b;fill-rule:nonzero"/><path d="M113.611 329.749c25.649-10.013 55.712-3.099 68.719-6.19 38.225-9.084 60.818-33.181 87.538-55.714 0 0-22.379.38-27.612.963-15.639 1.742-21.271 11.388-34.124 20.089-5.474 3.678-7.142 4.228-2.34-1.894 6.322-8.062 16.359-17.992 23.51-20.636 17.148-6.342 25.327-1.601 43.811-1.097 70.845-45.875 146.873-82.94 190.296-61.769 6.832 3.025 3.802 3.713-4.744 2.137-53.214-9.814-145.99 35.804-199.228 78.982-20.736 19.799-52.135 41.662-77.588 44.409-10.794 1.165-32.23-6.656-69.124 1.697-7.568 1.58-7.201 1.176.886-.977Zm200.213-16.026c-7.199-8.224-1.366-25.457 6.138-31.397 15.904-12.184 24.965-6.805 45.594-18.401-10.433 8.463-36.2 15.988-44.028 26.537-3.891 5.757-5.011 15.143-3.664 21.258.745 3.387-.757 5.371-4.04 2.003Zm131.641-12.301c7.285 1.22 9.196 1.765 8.759 2.495-.162.269-1.494 1.4-2.961 2.514-1.467 1.113-3.563 2.871-4.658 3.907-1.096 1.036-1.994 1.741-1.996 1.566-.004-.463 3.445-5.193 4.356-5.969 1.265-1.078 1.897-1.302-.311-1.272-12.657 1.299-24.89-8.3-34.317-12.911-7.576 17.051-46.58 26.715-65.198 31.187-.614 17.066-20.295 24.245-38.776 25.585-2.377.032-1.651-.784 1.735-1.948 9.909-2.408 21.035-11.269 26.958-21.865l-21.67 4.299c-20.442 30.338-10.398 45.387-42.181 56.999-9.974 3.644-20.854 3.174-28.794 7.255-20.312 12.071-17.496 4.535.846-7.735 11.465-6.106 21.913-3.767 33.067-8.001 15.716-5.969 16.289-30.307 22.905-45.184-95.614 22.126-96.884 52.761-153.836 79.583-6.892 3.639-7.698 4.009-7.3 3.346.159-.267 5.935-4.313 12.834-8.992 27.585-17.845 54.914-41.449 79.826-57.378 61.409-39.269 177.541-27.698 184.941-71.211.248 1.323-4.117 12.054-4.553 12.466 10.885 5.883 18.801 9.311 30.324 11.264Zm-71.02-30.426c54.869 20.434 78.287-33.648 96.308-59.358 1.254-1.499 1.408-1.569 1.437-.654-21.278 68.4-67.886 77.39-97.745 60.012Z" style="fill:#000600;fill-rule:nonzero"/></g><path d="M.454 0h.168L.393-.407l.211-.291H.442L.29-.472l-.069.111H.205l.006-.111v-.226H.068V0h.143v-.199l.081-.11L.454 0Z" style="fill-rule:nonzero" transform="rotate(-153.126 144.08 189.1) scale(40.00001)"/><path d="M.352 0v-.113H.27v-.472h.082v-.113H.045v.113h.082v.472H.045V0h.307Z" style="fill-rule:nonzero" transform="rotate(-146.959 143.35 181.24) scale(39.99998)"/><path d="M.448 0v-.125H.211v-.573H.068V0h.38Z" style="fill-rule:nonzero" transform="rotate(-141.168 146.628 174.714) scale(40.00001)"/><path d="M.448 0v-.125H.211v-.573H.068V0h.38Z" style="fill-rule:nonzero" transform="scale(-40) rotate(44.893 10.12 -9.009)"/><path d="M.352 0v-.113H.27v-.472h.082v-.113H.045v.113h.082v.472H.045V0h.307Z" style="fill-rule:nonzero" transform="rotate(-129.793 149.72 159.849) scale(39.99999)"/><path d="M.211 0v-.291h.235v-.124H.211v-.158h.277v-.125h-.42V0h.143Z" style="fill-rule:nonzero" transform="scale(-39.99998) rotate(56.249 7.133 -7.192)"/><path d="M.352 0v-.113H.27v-.472h.082v-.113H.045v.113h.082v.472H.045V0h.307Z" style="fill-rule:nonzero" transform="rotate(-118.048 154.67 143.486) scale(39.99999)"/><path d="M.272.012c.159 0 .246-.081.246-.229 0-.118-.055-.172-.192-.2L.262-.43C.213-.44.192-.463.192-.509c0-.053.028-.076.091-.076.058 0 .1.02.135.063L.51-.614C.458-.679.385-.71.285-.71c-.154 0-.236.073-.236.208 0 .116.06.181.188.205l.064.012c.051.01.074.036.074.084 0 .059-.034.088-.1.088A.194.194 0 0 1 .118-.19l-.092.092c.06.074.14.11.246.11Z" style="fill-rule:nonzero" transform="rotate(-112.019 158.988 135.333) scale(40.00001)"/><path d="M.443 0h.143v-.698H.443v.283H.211v-.283H.068V0h.143v-.291h.232V0Z" style="fill-rule:nonzero" transform="scale(-40) rotate(75.826 3.963 -5.27)"/><path d="M.598 0 .4-.698H.218L.02 0h.137L.2-.171h.214L.457 0h.141ZM.379-.286H.235l.041-.161.022-.121h.016l.022.121.043.161Z" style="fill-rule:nonzero" transform="rotate(-93.36 170.085 103.192) scale(39.99998)"/><path d="M.43 0h.156v-.698H.452v.368l.008.117H.444L.4-.324.224-.698H.068V0h.134v-.368L.194-.485H.21l.044.111L.43 0Z" style="fill-rule:nonzero" transform="scale(39.99999) rotate(-85.371 4.391 2.155)"/><path d="M.068 0h.245c.17 0 .273-.099.273-.349 0-.25-.103-.349-.273-.349H.068V0Zm.143-.125v-.448h.102c.079 0 .121.045.121.14v.168c0 .095-.042.14-.121.14H.211Z" style="fill-rule:nonzero" transform="rotate(-77.011 182.234 65.287) scale(39.99999)"/><path d="M.448 0v-.125H.211v-.573H.068V0h.38Z" style="fill-rule:nonzero" transform="rotate(-67.103 190.514 32.894) scale(40.00001)"/><path d="M.352 0v-.113H.27v-.472h.082v-.113H.045v.113h.082v.472H.045V0h.307Z" style="fill-rule:nonzero" transform="rotate(-61.714 195.673 10.593) scale(40)"/><path d="m.385 0 .201-.698H.442l-.11.424L.31-.13H.294L.272-.274.16-.698H.012L.217 0h.168Z" style="fill-rule:nonzero" transform="rotate(-55.389 206.49 -14.28) scale(40)"/><path d="M.5 0v-.125H.211v-.166h.245v-.124H.211v-.158H.5v-.125H.068V0H.5Z" style="fill-rule:nonzero" transform="rotate(-48.008 219.087 -56.623) scale(40.00001)"/><path d="M.068 0h.338c.101 0 .162-.089.162-.199 0-.113-.078-.154-.143-.154v-.016c.058-.004.118-.032.118-.15 0-.108-.054-.179-.165-.179h-.31V0Zm.143-.293h.155c.032 0 .053.017.053.061v.05c0 .044-.021.061-.053.061H.211v-.172Zm0-.284h.132c.033 0 .053.017.053.06v.046c0 .043-.02.06-.053.06H.211v-.166Z" style="fill-rule:nonzero" transform="rotate(-40.648 236.949 -110.568) scale(39.99999)"/><path d="M.5 0v-.125H.211v-.166h.245v-.124H.211v-.158H.5v-.125H.068V0H.5Z" style="fill-rule:nonzero" transform="scale(40) rotate(-33.45 6.501 -4.736)"/><path d="M.598 0 .4-.698H.218L.02 0h.137L.2-.171h.214L.457 0h.141ZM.379-.286H.235l.041-.161.022-.121h.016l.022.121.043.161Z" style="fill-rule:nonzero" transform="rotate(-26.133 297.77 -307.29) scale(39.99999)"/><path d="M.211-.264h.095L.414 0h.155L.447-.277c.075-.028.115-.102.115-.204 0-.132-.067-.217-.192-.217H.068V0h.143v-.264Zm0-.119v-.19h.141c.038 0 .062.017.062.065v.06c0 .048-.024.065-.062.065H.211Z" style="fill-rule:nonzero" transform="scale(40) rotate(-18.091 9.324 -13.653)"/><path d="M.5 0v-.125H.211v-.166h.245v-.124H.211v-.158H.5v-.125H.068V0H.5Z" style="fill-rule:nonzero" transform="scale(40) rotate(-10.701 13.484 -27.18)"/><path d="M.211-.264h.095L.414 0h.155L.447-.277c.075-.028.115-.102.115-.204 0-.132-.067-.217-.192-.217H.068V0h.143v-.264Zm0-.119v-.19h.141c.038 0 .062.017.062.065v.06c0 .048-.024.065-.062.065H.211Z" style="fill-rule:nonzero" transform="rotate(-3.269 1466.134 -4042.224) scale(40)"/><path d="M.466 0h.12v-.385H.334v.12h.115v.041c0 .072-.053.109-.125.109-.079 0-.128-.048-.128-.143V-.44c0-.095.049-.144.124-.144.076 0 .118.04.137.102l.117-.067C.528-.655.445-.71.321-.71c-.167 0-.277.1-.277.364s.117.358.249.358C.385.012.441-.039.45-.11h.016V0Z" style="fill-rule:nonzero" transform="scale(40.00002) rotate(7.05 -12.064 54.88)"/><path d="M.211-.264h.095L.414 0h.155L.447-.277c.075-.028.115-.102.115-.204 0-.132-.067-.217-.192-.217H.068V0h.143v-.264Zm0-.119v-.19h.141c.038 0 .062.017.062.065v.06c0 .048-.024.065-.062.065H.211Z" style="fill-rule:nonzero" transform="scale(40) rotate(15.357 -3.684 28.008)"/><path d="M.321.012c.167 0 .277-.1.277-.361S.488-.71.321-.71c-.167 0-.277.1-.277.361s.11.361.277.361Zm0-.126c-.079 0-.125-.049-.125-.144V-.44c0-.095.046-.144.125-.144s.125.049.125.144v.182c0 .095-.046.144-.125.144Z" style="fill-rule:nonzero" transform="rotate(23.161 -50.885 810.967) scale(40.00002)"/><path d="M.064-.698v.434c0 .196.065.276.251.276s.251-.08.251-.276v-.434H.423v.453c0 .092-.027.13-.108.13S.207-.153.207-.245v-.453H.064Z" style="fill-rule:nonzero" transform="rotate(31.295 -1.26 652.093) scale(39.99999)"/><path d="M.211 0v-.258H.37c.125 0 .192-.087.192-.22S.495-.698.37-.698H.068V0h.143Zm0-.573h.141c.038 0 .062.018.062.065v.06c0 .047-.024.065-.062.065H.211v-.19Z" style="fill-rule:nonzero" transform="scale(40) rotate(39.28 .696 13.97)"/><path d="M.272.012c.159 0 .246-.081.246-.229 0-.118-.055-.172-.192-.2L.262-.43C.213-.44.192-.463.192-.509c0-.053.028-.076.091-.076.058 0 .1.02.135.063L.51-.614C.458-.679.385-.71.285-.71c-.154 0-.236.073-.236.208 0 .116.06.181.188.205l.064.012c.051.01.074.036.074.084 0 .059-.034.088-.1.088A.194.194 0 0 1 .118-.19l-.092.092c.06.074.14.11.246.11Z" style="fill-rule:nonzero" transform="scale(40.00002) rotate(46.13 1.104 12.646)"/><path d="M.272.012c.159 0 .246-.081.246-.229 0-.118-.055-.172-.192-.2L.262-.43C.213-.44.192-.463.192-.509c0-.053.028-.076.091-.076.058 0 .1.02.135.063L.51-.614C.458-.679.385-.71.285-.71c-.154 0-.236.073-.236.208 0 .116.06.181.188.205l.064.012c.051.01.074.036.074.084 0 .059-.034.088-.1.088A.194.194 0 0 1 .118-.19l-.092.092c.06.074.14.11.246.11Z" style="fill-rule:nonzero" transform="scale(40.00002) rotate(-8.201 84.223 -42.168)"/><path d="M.598 0 .4-.698H.218L.02 0h.137L.2-.171h.214L.457 0h.141ZM.379-.286H.235l.041-.161.022-.121h.016l.022.121.043.161Z" style="fill-rule:nonzero" transform="rotate(-15.802 1805.677 -853.848) scale(39.99998)"/><path d="M.43 0h.156v-.698H.452v.368l.008.117H.444L.4-.324.224-.698H.068V0h.134v-.368L.194-.485H.21l.044.111L.43 0Z" style="fill-rule:nonzero" transform="rotate(-23.971 1227.315 -547.709) scale(39.99998)"/><path d="M.068 0h.245c.17 0 .273-.099.273-.349 0-.25-.103-.349-.273-.349H.068V0Zm.143-.125v-.448h.102c.079 0 .121.045.121.14v.168c0 .095-.042.14-.121.14H.211Z" style="fill-rule:nonzero" transform="rotate(-34.997 870.363 -360.895) scale(40.00001)"/><path d="M.352 0v-.113H.27v-.472h.082v-.113H.045v.113h.082v.472H.045V0h.307Z" style="fill-rule:nonzero" transform="rotate(-41.352 746.61 -304.48) scale(39.99999)"/><path d="M.5 0v-.125H.211v-.166h.245v-.124H.211v-.158H.5v-.125H.068V0H.5Z" style="fill-rule:nonzero" transform="rotate(-47.453 661.372 -254.314) scale(40)"/><path d="M.466 0h.12v-.385H.334v.12h.115v.041c0 .072-.053.109-.125.109-.079 0-.128-.048-.128-.143V-.44c0-.095.049-.144.124-.144.076 0 .118.04.137.102l.117-.067C.528-.655.445-.71.321-.71c-.167 0-.277.1-.277.364s.117.358.249.358C.385.012.441-.039.45-.11h.016V0Z" style="fill-rule:nonzero" transform="rotate(-54.788 581.794 -210.982) scale(39.99999)"/><path d="M.321.012c.167 0 .277-.1.277-.361S.488-.71.321-.71c-.167 0-.277.1-.277.361s.11.361.277.361Zm0-.126c-.079 0-.125-.049-.125-.144V-.44c0-.095.046-.144.125-.144s.125.049.125.144v.182c0 .095-.046.144-.125.144Z" style="fill-rule:nonzero" transform="scale(40) rotate(-63.083 12.806 -4.355)"/><defs><radialGradient id="b" cx="0" cy="0" r="1" gradientUnits="userSpaceOnUse" gradientTransform="matrix(132.276 587.269 -385.46 86.8203 381.013 356.449)"><stop offset="0" style="stop-color:#fcc807;stop-opacity:1"/><stop offset=".52" style="stop-color:#fefefd;stop-opacity:.26"/><stop offset="1" style="stop-color:white;stop-opacity:0"/></radialGradient><radialGradient id="c" cx="0" cy="0" r="1" gradientUnits="userSpaceOnUse" gradientTransform="matrix(177.235 -84.1512 46.0887 97.0699 210.228 338.94)"><stop offset="0" style="stop-color:#56bfff;stop-opacity:1"/><stop offset="1" style="stop-color:white;stop-opacity:1"/></radialGradient></defs></svg>